<?xml version="1.0" standalone="no"?>
<!DOCTYPE svg PUBLIC "-//W3C//DTD SVG 20010904//EN"
 "http://www.w3.org/TR/2001/REC-SVG-20010904/DTD/svg10.dtd">
<svg version="1.0" xmlns="http://www.w3.org/2000/svg"
 width="3495.000000pt" height="1970.000000pt" viewBox="0 0 3495.000000 1970.000000"
 preserveAspectRatio="xMidYMid meet">

<g transform="translate(0.000000,1970.000000) scale(0.100000,-0.100000)"
fill="#000000" stroke="none">
<path d="M21370 19290 c0 -16 -7 -20 -35 -20 -24 0 -35 -5 -35 -15 0 -10 -11
-15 -35 -15 -28 0 -35 -4 -35 -20 0 -11 -7 -20 -15 -20 -8 0 -15 -7 -15 -15 0
-10 -11 -15 -35 -15 -28 0 -35 -4 -35 -20 0 -16 -7 -20 -35 -20 -24 0 -35 -5
-35 -15 0 -10 -11 -15 -35 -15 -28 0 -35 -4 -35 -20 0 -17 -7 -20 -50 -20 -38
0 -50 -4 -50 -15 0 -11 -12 -15 -50 -15 -38 0 -50 -4 -50 -15 0 -10 -11 -15
-35 -15 -28 0 -35 -4 -35 -20 0 -18 -7 -20 -55 -20 -42 0 -55 -3 -55 -15 0
-10 -11 -15 -35 -15 -28 0 -35 -4 -35 -20 0 -16 -7 -20 -35 -20 -24 0 -35 -5
-35 -15 0 -11 -12 -15 -50 -15 -43 0 -50 -3 -50 -20 0 -16 -7 -20 -35 -20 -24
0 -35 -5 -35 -15 0 -10 -11 -15 -35 -15 -28 0 -35 -4 -35 -20 0 -16 -7 -20
-35 -20 -24 0 -35 -5 -35 -15 0 -10 -10 -15 -30 -15 -20 0 -30 -5 -30 -15 0
-10 -11 -15 -35 -15 -28 0 -35 -4 -35 -20 0 -16 -7 -20 -35 -20 -24 0 -35 -5
-35 -15 0 -8 -9 -15 -20 -15 -13 0 -20 -7 -20 -20 0 -16 -7 -20 -35 -20 -24 0
-35 -5 -35 -15 0 -10 -10 -15 -30 -15 -23 0 -30 -4 -30 -20 0 -19 -7 -20 -125
-20 -118 0 -125 1 -125 20 0 19 -7 20 -155 20 -131 0 -155 2 -155 15 0 13 -31
15 -220 15 -213 0 -220 1 -220 20 0 19 -7 20 -210 20 -203 0 -210 -1 -210 -20
0 -18 -7 -20 -85 -20 -69 0 -85 -3 -85 -15 0 -11 -12 -15 -50 -15 -43 0 -50
-3 -50 -20 0 -18 -7 -20 -55 -20 -42 0 -55 -3 -55 -15 0 -10 -11 -15 -35 -15
-28 0 -35 -4 -35 -20 0 -16 -7 -20 -30 -20 -20 0 -30 -5 -30 -15 0 -10 -11
-15 -35 -15 -28 0 -35 -4 -35 -20 0 -13 -7 -20 -20 -20 -11 0 -20 -7 -20 -15
0 -10 -11 -15 -35 -15 -24 0 -35 -5 -35 -15 0 -8 -7 -15 -15 -15 -8 0 -15 7
-15 15 0 10 -11 15 -35 15 -24 0 -35 5 -35 15 0 10 -11 15 -35 15 -28 0 -35 4
-35 20 0 16 -7 20 -35 20 -24 0 -35 5 -35 15 0 10 -11 15 -35 15 -28 0 -35 4
-35 20 0 11 -7 20 -15 20 -8 0 -15 7 -15 15 0 10 -11 15 -35 15 -28 0 -35 4
-35 20 0 16 -7 20 -35 20 -24 0 -35 5 -35 15 0 10 -11 15 -35 15 -28 0 -35 4
-35 20 0 16 -7 20 -35 20 -24 0 -35 5 -35 15 0 10 -11 15 -35 15 -28 0 -35 4
-35 20 0 17 -7 20 -50 20 -38 0 -50 4 -50 15 0 10 -11 15 -35 15 -24 0 -35 5
-35 15 0 11 -12 15 -50 15 -43 0 -50 3 -50 20 0 19 -7 20 -155 20 -148 0 -155
-1 -155 -20 0 -16 -7 -20 -35 -20 -24 0 -35 -5 -35 -15 0 -10 -11 -15 -35 -15
-24 0 -35 -5 -35 -15 0 -10 -11 -15 -35 -15 -28 0 -35 -4 -35 -20 0 -16 -7
-20 -35 -20 -24 0 -35 -5 -35 -15 0 -8 -7 -15 -15 -15 -8 0 -15 -9 -15 -20 0
-13 -7 -20 -20 -20 -11 0 -20 -7 -20 -15 0 -8 -7 -15 -15 -15 -8 0 -15 -9 -15
-20 0 -16 -7 -20 -35 -20 -24 0 -35 -5 -35 -15 0 -8 -7 -15 -15 -15 -8 0 -15
-9 -15 -20 0 -13 -7 -20 -20 -20 -11 0 -20 -7 -20 -15 0 -8 -7 -15 -15 -15 -8
0 -15 -9 -15 -20 0 -13 -7 -20 -20 -20 -11 0 -20 -7 -20 -15 0 -8 -7 -15 -15
-15 -8 0 -15 -7 -15 -15 0 -8 -9 -15 -20 -15 -13 0 -20 -7 -20 -20 0 -11 -7
-20 -15 -20 -10 0 -15 -11 -15 -35 0 -28 -4 -35 -20 -35 -11 0 -20 -7 -20 -15
0 -8 -7 -15 -15 -15 -8 0 -15 -9 -15 -20 0 -11 -7 -20 -15 -20 -8 0 -15 -7
-15 -15 0 -8 -9 -15 -20 -15 -13 0 -20 -7 -20 -20 0 -11 -7 -20 -15 -20 -10 0
-15 -10 -15 -30 0 -23 -4 -30 -20 -30 -13 0 -20 -7 -20 -20 0 -11 -7 -20 -15
-20 -10 0 -15 -11 -15 -35 0 -28 -4 -35 -20 -35 -16 0 -20 -7 -20 -35 0 -24
-5 -35 -15 -35 -10 0 -15 -11 -15 -35 0 -28 -4 -35 -20 -35 -16 0 -20 -7 -20
-30 0 -20 -5 -30 -15 -30 -12 0 -15 -13 -15 -55 0 -48 -2 -55 -20 -55 -18 0
-20 -7 -20 -70 0 -56 -3 -70 -15 -70 -12 0 -15 -16 -15 -85 0 -69 -3 -85 -15
-85 -13 0 -15 -28 -15 -190 0 -183 -1 -190 -20 -190 -18 0 -20 -7 -20 -65 0
-58 2 -65 20 -65 13 0 20 -7 20 -20 0 -11 7 -20 15 -20 8 0 15 9 15 20 0 11 7
20 15 20 8 0 15 7 15 15 0 8 9 15 20 15 16 0 20 -7 20 -35 0 -24 5 -35 15 -35
11 0 15 -12 15 -50 0 -43 3 -50 20 -50 16 0 20 -7 20 -35 l0 -35 -70 0 c-63 0
-70 -2 -70 -20 0 -19 -7 -20 -140 -20 -118 0 -140 -2 -140 -15 0 -13 -22 -15
-135 -15 -128 0 -135 -1 -135 -20 0 -19 -7 -20 -140 -20 -118 0 -140 -2 -140
-15 0 -13 -22 -15 -135 -15 -113 0 -135 -2 -135 -15 0 -13 -22 -15 -140 -15
-133 0 -140 -1 -140 -20 0 -19 -7 -20 -135 -20 -113 0 -135 -2 -135 -15 0 -13
-22 -15 -140 -15 -133 0 -140 -1 -140 -20 0 -19 -7 -20 -140 -20 -118 0 -140
-2 -140 -15 0 -13 -22 -15 -135 -15 -128 0 -135 -1 -135 -20 0 -19 -7 -20
-140 -20 -118 0 -140 -2 -140 -15 0 -13 -22 -15 -135 -15 -128 0 -135 -1 -135
-20 0 -19 -7 -20 -140 -20 -118 0 -140 -2 -140 -15 0 -13 -22 -15 -135 -15
-113 0 -135 -2 -135 -15 0 -13 -22 -15 -140 -15 -133 0 -140 -1 -140 -20 0
-19 -7 -20 -140 -20 -118 0 -140 -2 -140 -15 0 -13 -22 -15 -135 -15 -128 0
-135 -1 -135 -20 0 -18 -7 -20 -70 -20 l-70 0 0 -2085 c0 -1847 -2 -2085 -15
-2085 -8 0 -15 -7 -15 -15 0 -8 -9 -15 -20 -15 -11 0 -20 7 -20 15 0 11 -12
15 -50 15 -43 0 -50 3 -50 20 0 18 -7 20 -70 20 -56 0 -70 3 -70 15 0 10 -11
15 -35 15 l-35 0 0 50 c0 43 3 50 20 50 18 0 20 7 20 70 l0 70 -35 0 c-24 0
-35 -5 -35 -15 0 -12 -14 -15 -70 -15 -63 0 -70 -2 -70 -20 0 -16 -7 -20 -35
-20 -24 0 -35 -5 -35 -15 0 -10 -11 -15 -35 -15 -28 0 -35 -4 -35 -20 0 -16
-7 -20 -35 -20 -24 0 -35 -5 -35 -15 0 -10 -11 -15 -35 -15 -24 0 -35 -5 -35
-15 0 -10 -11 -15 -35 -15 -28 0 -35 -4 -35 -20 0 -11 -7 -20 -15 -20 -8 0
-15 -7 -15 -15 0 -10 -11 -15 -35 -15 -28 0 -35 -4 -35 -20 0 -11 -7 -20 -15
-20 -8 0 -15 -7 -15 -15 0 -8 -9 -15 -20 -15 -13 0 -20 -7 -20 -20 0 -11 -7
-20 -15 -20 -8 0 -15 -7 -15 -15 0 -8 -9 -15 -20 -15 -13 0 -20 -7 -20 -20 0
-11 -7 -20 -15 -20 -8 0 -15 -7 -15 -15 0 -8 -9 -15 -20 -15 -16 0 -20 -7 -20
-35 0 -24 -5 -35 -15 -35 -8 0 -15 -7 -15 -15 0 -8 -7 -15 -15 -15 -10 0 -15
-11 -15 -35 l0 -35 -225 0 c-218 0 -225 -1 -225 -20 0 -18 -7 -20 -85 -20 -69
0 -85 -3 -85 -15 0 -12 -13 -15 -55 -15 -48 0 -55 -2 -55 -20 0 -16 -7 -20
-35 -20 -24 0 -35 -5 -35 -15 0 -10 -11 -15 -35 -15 -28 0 -35 -4 -35 -20 0
-16 -7 -20 -35 -20 -24 0 -35 -5 -35 -15 0 -8 -7 -15 -15 -15 -8 0 -15 -7 -15
-15 0 -8 -7 -15 -15 -15 -8 0 -15 -9 -15 -20 0 -16 -7 -20 -35 -20 -24 0 -35
-5 -35 -15 0 -8 -9 -15 -20 -15 -16 0 -20 -7 -20 -35 0 -24 -5 -35 -15 -35 -8
0 -15 -9 -15 -20 0 -13 -7 -20 -20 -20 -16 0 -20 -7 -20 -35 0 -24 -5 -35 -15
-35 -8 0 -15 -7 -15 -15 0 -8 -9 -15 -20 -15 -16 0 -20 -7 -20 -35 0 -24 -5
-35 -15 -35 -11 0 -15 -12 -15 -50 0 -38 -4 -50 -15 -50 -12 0 -15 -13 -15
-55 0 -48 -2 -55 -20 -55 -18 0 -20 -7 -20 -85 0 -69 -3 -85 -15 -85 -13 0
-15 -28 -15 -190 l0 -190 -90 0 c-73 0 -90 -3 -90 -15 0 -11 -12 -15 -50 -15
-43 0 -50 -3 -50 -20 0 -16 -7 -20 -35 -20 -24 0 -35 -5 -35 -15 0 -10 -11
-15 -35 -15 -24 0 -35 -5 -35 -15 0 -8 -7 -15 -15 -15 -12 0 -15 16 -15 85 0
69 3 85 15 85 11 0 15 12 15 50 0 38 -4 50 -15 50 -8 0 -15 -7 -15 -15 0 -8
-9 -15 -20 -15 -13 0 -20 -7 -20 -20 0 -11 -7 -20 -15 -20 -8 0 -15 -7 -15
-15 0 -8 -7 -15 -15 -15 -8 0 -15 -9 -15 -20 0 -13 -7 -20 -20 -20 -11 0 -20
-7 -20 -15 0 -8 -7 -15 -15 -15 -8 0 -15 -9 -15 -20 0 -13 -7 -20 -20 -20 -11
0 -20 -7 -20 -15 0 -8 -7 -15 -15 -15 -10 0 -15 -11 -15 -35 0 -28 -4 -35 -20
-35 -11 0 -20 -7 -20 -15 0 -8 -7 -15 -15 -15 -10 0 -15 -11 -15 -35 0 -28 -4
-35 -20 -35 -16 0 -20 -7 -20 -35 0 -24 -5 -35 -15 -35 -12 0 -15 -13 -15 -55
0 -42 -3 -55 -15 -55 -13 0 -15 -27 -15 -185 0 -178 -1 -185 -20 -185 -16 0
-20 7 -20 30 0 20 -5 30 -15 30 -8 0 -15 9 -15 20 0 13 -7 20 -20 20 -16 0
-20 7 -20 35 0 24 -5 35 -15 35 -8 0 -15 7 -15 15 0 8 -9 15 -20 15 -11 0 -20
-7 -20 -15 0 -8 -7 -15 -15 -15 -13 0 -15 -41 -15 -310 0 -269 2 -310 15 -310
12 0 15 -18 15 -105 0 -98 1 -105 20 -105 18 0 20 -7 20 -70 0 -56 3 -70 15
-70 12 0 15 -14 15 -65 0 -58 2 -65 20 -65 16 0 20 -7 20 -35 0 -24 5 -35 15
-35 12 0 15 -13 15 -55 0 -48 2 -55 20 -55 16 0 20 -7 20 -35 0 -24 5 -35 15
-35 10 0 15 -11 15 -35 0 -24 5 -35 15 -35 11 0 15 -12 15 -50 l0 -50 -50 0
c-43 0 -50 3 -50 20 0 16 -7 20 -35 20 -24 0 -35 5 -35 15 0 8 -7 15 -15 15
-10 0 -15 11 -15 35 0 28 -4 35 -20 35 -16 0 -20 7 -20 35 0 24 -5 35 -15 35
-10 0 -15 -11 -15 -35 0 -28 -4 -35 -20 -35 -18 0 -20 -7 -20 -85 0 -69 -3
-85 -15 -85 -13 0 -15 -49 -15 -380 0 -331 2 -380 15 -380 12 0 15 -16 15 -85
0 -78 2 -85 20 -85 18 0 20 -7 20 -55 0 -42 3 -55 15 -55 11 0 15 -12 15 -50
0 -43 3 -50 20 -50 17 0 20 -7 20 -50 0 -38 4 -50 15 -50 10 0 15 -11 15 -35
0 -28 4 -35 20 -35 16 0 20 -7 20 -35 0 -24 5 -35 15 -35 10 0 15 -11 15 -35
0 -28 4 -35 20 -35 11 0 20 -7 20 -15 0 -8 7 -15 15 -15 10 0 15 -11 15 -35 0
-24 5 -35 15 -35 8 0 15 -9 15 -20 0 -13 7 -20 20 -20 11 0 20 -7 20 -15 0 -8
7 -15 15 -15 8 0 15 -9 15 -20 0 -13 7 -20 20 -20 11 0 20 -7 20 -15 0 -8 7
-15 15 -15 8 0 15 -9 15 -20 0 -13 7 -20 20 -20 11 0 20 -7 20 -15 0 -8 7 -15
15 -15 8 0 15 -9 15 -20 0 -13 7 -20 20 -20 11 0 20 -7 20 -15 0 -8 7 -15 15
-15 8 0 15 -7 15 -15 0 -8 7 -15 15 -15 8 0 15 -9 15 -20 0 -16 7 -20 35 -20
24 0 35 -5 35 -15 0 -8 9 -15 20 -15 13 0 20 -7 20 -20 0 -16 7 -20 35 -20 24
0 35 -5 35 -15 0 -8 7 -15 15 -15 8 0 15 -9 15 -20 0 -16 7 -20 35 -20 24 0
35 -5 35 -15 0 -10 11 -15 35 -15 28 0 35 -4 35 -20 0 -17 7 -20 50 -20 38 0
50 -4 50 -15 0 -10 11 -15 35 -15 24 0 35 -5 35 -15 0 -12 14 -15 70 -15 63 0
70 -2 70 -20 0 -18 7 -20 70 -20 56 0 70 -3 70 -15 0 -12 18 -15 100 -15 93 0
100 -1 100 -20 0 -19 7 -20 210 -20 180 0 210 -2 210 -15 0 -8 7 -15 15 -15
10 0 15 -11 15 -35 0 -28 4 -35 20 -35 13 0 20 -7 20 -20 0 -11 7 -20 15 -20
8 0 15 -7 15 -15 0 -8 9 -15 20 -15 11 0 20 -7 20 -15 0 -8 7 -15 15 -15 8 0
15 -9 15 -20 0 -11 7 -20 15 -20 8 0 15 -7 15 -15 0 -8 9 -15 20 -15 13 0 20
-7 20 -20 0 -11 7 -20 15 -20 8 0 15 -7 15 -15 0 -10 11 -15 35 -15 28 0 35
-4 35 -20 0 -13 7 -20 20 -20 11 0 20 -7 20 -15 0 -8 7 -15 15 -15 8 0 15 -9
15 -20 0 -13 7 -20 20 -20 11 0 20 -7 20 -15 0 -8 7 -15 15 -15 8 0 15 -7 15
-15 0 -8 -7 -15 -15 -15 -10 0 -15 -11 -15 -35 0 -28 -4 -35 -20 -35 -16 0
-20 -7 -20 -35 0 -24 -5 -35 -15 -35 -10 0 -15 -11 -15 -35 0 -28 -4 -35 -20
-35 -16 0 -20 -7 -20 -35 0 -24 -5 -35 -15 -35 -11 0 -15 -12 -15 -50 0 -43
-3 -50 -20 -50 -16 0 -20 -7 -20 -35 0 -24 -5 -35 -15 -35 -10 0 -15 -11 -15
-35 0 -28 -4 -35 -20 -35 -16 0 -20 -7 -20 -35 0 -24 -5 -35 -15 -35 -10 0
-15 -11 -15 -35 0 -24 -5 -35 -15 -35 -10 0 -15 -11 -15 -35 0 -28 -4 -35 -20
-35 -16 0 -20 -7 -20 -35 0 -24 -5 -35 -15 -35 -11 0 -15 -12 -15 -50 0 -43
-3 -50 -20 -50 -16 0 -20 -7 -20 -35 0 -24 -5 -35 -15 -35 -8 0 -15 -7 -15
-15 0 -8 7 -15 15 -15 8 0 15 7 15 15 0 10 11 15 35 15 24 0 35 5 35 15 0 10
11 15 35 15 28 0 35 4 35 20 0 16 7 20 35 20 24 0 35 5 35 15 0 10 11 15 35
15 28 0 35 4 35 20 0 16 7 20 35 20 24 0 35 5 35 15 0 10 11 15 35 15 28 0 35
4 35 20 0 16 7 20 30 20 20 0 30 5 30 15 0 10 11 15 35 15 28 0 35 4 35 20 0
16 7 20 35 20 24 0 35 5 35 15 0 10 11 15 35 15 24 0 35 5 35 15 0 10 11 15
35 15 28 0 35 4 35 20 0 17 7 20 50 20 38 0 50 4 50 15 0 10 11 15 35 15 28 0
35 4 35 20 0 16 7 20 35 20 24 0 35 5 35 15 0 11 12 15 50 15 43 0 50 3 50 20
0 16 7 20 35 20 24 0 35 5 35 15 0 12 14 15 70 15 56 0 70 -3 70 -15 0 -12 13
-15 55 -15 48 0 55 -2 55 -20 0 -17 7 -20 50 -20 38 0 50 -4 50 -15 0 -11 12
-15 50 -15 43 0 50 -3 50 -20 0 -18 7 -20 55 -20 42 0 55 -3 55 -15 0 -12 14
-15 65 -15 58 0 65 -2 65 -20 0 -18 7 -20 70 -20 56 0 70 -3 70 -15 0 -12 16
-15 85 -15 69 0 85 -3 85 -15 0 -12 18 -15 105 -15 98 0 105 -1 105 -20 0 -19
7 -20 140 -20 118 0 140 -2 140 -15 0 -13 31 -15 220 -15 213 0 220 -1 220
-20 0 -19 7 -20 105 -20 87 0 105 -3 105 -15 0 -8 9 -15 20 -15 13 0 20 -7 20
-20 0 -11 7 -20 15 -20 8 0 15 -7 15 -15 0 -8 7 -15 15 -15 10 0 15 -11 15
-35 0 -28 4 -35 20 -35 11 0 20 -7 20 -15 0 -8 7 -15 15 -15 8 0 15 -9 15 -20
0 -13 7 -20 20 -20 11 0 20 -7 20 -15 0 -8 7 -15 15 -15 10 0 15 -11 15 -35 0
-28 4 -35 20 -35 13 0 20 -7 20 -20 0 -11 7 -20 15 -20 8 0 15 -7 15 -15 0 -8
9 -15 20 -15 13 0 20 -7 20 -20 0 -11 7 -20 15 -20 8 0 15 -7 15 -15 0 -8 7
-15 15 -15 8 0 15 -7 15 -15 0 -8 9 -15 20 -15 16 0 20 -7 20 -35 0 -24 5 -35
15 -35 8 0 15 -9 15 -20 0 -13 7 -20 20 -20 11 0 20 -7 20 -15 0 -8 7 -15 15
-15 8 0 15 -9 15 -20 0 -13 7 -20 20 -20 11 0 20 -7 20 -15 0 -8 7 -15 15 -15
8 0 15 -9 15 -20 0 -13 7 -20 20 -20 11 0 20 -7 20 -15 0 -8 7 -15 15 -15 8 0
15 -7 15 -15 0 -8 7 -15 15 -15 8 0 15 -9 15 -20 0 -13 7 -20 20 -20 11 0 20
-7 20 -15 0 -8 7 -15 15 -15 8 0 15 -9 15 -20 0 -13 7 -20 20 -20 11 0 20 -7
20 -15 0 -8 7 -15 15 -15 8 0 15 -9 15 -20 0 -13 7 -20 20 -20 11 0 20 -7 20
-15 0 -8 7 -15 15 -15 8 0 15 -9 15 -20 0 -13 7 -20 20 -20 11 0 20 -7 20 -15
0 -8 7 -15 15 -15 8 0 15 -7 15 -15 0 -8 7 -15 15 -15 8 0 15 -9 15 -20 0 -13
7 -20 20 -20 11 0 20 -7 20 -15 0 -8 7 -15 15 -15 8 0 15 -9 15 -20 0 -13 7
-20 20 -20 11 0 20 -7 20 -15 0 -8 7 -15 15 -15 8 0 15 -9 15 -20 0 -13 7 -20
20 -20 11 0 20 -7 20 -15 0 -10 11 -15 35 -15 28 0 35 -4 35 -20 0 -11 7 -20
15 -20 8 0 15 -7 15 -15 0 -8 7 -15 15 -15 8 0 15 -7 15 -15 0 -8 9 -15 20
-15 13 0 20 -7 20 -20 0 -11 7 -20 15 -20 8 0 15 -7 15 -15 0 -8 9 -15 20 -15
13 0 20 -7 20 -20 0 -16 7 -20 35 -20 24 0 35 -5 35 -15 0 -8 7 -15 15 -15 8
0 15 -9 15 -20 0 -13 7 -20 20 -20 11 0 20 -7 20 -15 0 -8 7 -15 15 -15 8 0
15 -9 15 -20 0 -13 7 -20 20 -20 11 0 20 -7 20 -15 0 -10 10 -15 30 -15 23 0
30 -4 30 -20 0 -13 7 -20 20 -20 11 0 20 -7 20 -15 0 -8 7 -15 15 -15 8 0 15
-7 15 -15 0 -8 9 -15 20 -15 13 0 20 -7 20 -20 0 -16 7 -20 35 -20 24 0 35 -5
35 -15 0 -8 7 -15 15 -15 8 0 15 -9 15 -20 0 -13 7 -20 20 -20 11 0 20 -7 20
-15 0 -10 10 -15 30 -15 23 0 30 -4 30 -20 0 -13 7 -20 20 -20 11 0 20 -7 20
-15 0 -8 7 -15 15 -15 8 0 15 -9 15 -20 0 -16 7 -20 35 -20 24 0 35 -5 35 -15
0 -8 9 -15 20 -15 11 0 20 -7 20 -15 0 -10 11 -15 35 -15 28 0 35 -4 35 -20 0
-11 7 -20 15 -20 8 0 15 -7 15 -15 0 -8 7 -15 15 -15 8 0 15 -9 15 -20 0 -16
7 -20 35 -20 24 0 35 -5 35 -15 0 -8 9 -15 20 -15 13 0 20 -7 20 -20 0 -16 7
-20 35 -20 24 0 35 -5 35 -15 0 -8 7 -15 15 -15 8 0 15 -9 15 -20 0 -16 7 -20
35 -20 24 0 35 -5 35 -15 0 -8 7 -15 15 -15 8 0 15 -7 15 -15 0 -10 11 -15 35
-15 28 0 35 -4 35 -20 0 -13 7 -20 20 -20 11 0 20 -7 20 -15 0 -10 11 -15 35
-15 28 0 35 -4 35 -20 0 -11 7 -20 15 -20 8 0 15 -7 15 -15 0 -10 11 -15 35
-15 28 0 35 -4 35 -20 0 -16 7 -20 35 -20 24 0 35 -5 35 -15 0 -8 7 -15 15
-15 8 0 15 -9 15 -20 0 -16 7 -20 35 -20 24 0 35 -5 35 -15 0 -10 11 -15 35
-15 24 0 35 -5 35 -15 0 -8 9 -15 20 -15 13 0 20 -7 20 -20 0 -16 7 -20 35
-20 24 0 35 -5 35 -15 0 -10 10 -15 30 -15 23 0 30 -4 30 -20 0 -16 7 -20 35
-20 24 0 35 -5 35 -15 0 -8 9 -15 20 -15 13 0 20 -7 20 -20 0 -16 7 -20 35
-20 24 0 35 -5 35 -15 0 -10 11 -15 35 -15 28 0 35 -4 35 -20 0 -16 7 -20 30
-20 20 0 30 -5 30 -15 0 -10 11 -15 35 -15 24 0 35 -5 35 -15 0 -8 9 -15 20
-15 13 0 20 -7 20 -20 0 -16 7 -20 35 -20 24 0 35 -5 35 -15 0 -10 11 -15 35
-15 28 0 35 -4 35 -20 0 -16 7 -20 30 -20 20 0 30 -5 30 -15 0 -10 11 -15 35
-15 28 0 35 -4 35 -20 0 -16 7 -20 35 -20 24 0 35 -5 35 -15 0 -10 11 -15 35
-15 28 0 35 -4 35 -20 0 -16 7 -20 35 -20 24 0 35 -5 35 -15 0 -10 11 -15 35
-15 28 0 35 -4 35 -20 0 -16 7 -20 35 -20 24 0 35 -5 35 -15 0 -10 11 -15 35
-15 24 0 35 -5 35 -15 0 -11 12 -15 50 -15 43 0 50 -3 50 -20 0 -16 7 -20 35
-20 24 0 35 -5 35 -15 0 -10 11 -15 35 -15 28 0 35 -4 35 -20 0 -16 7 -20 35
-20 24 0 35 -5 35 -15 0 -10 11 -15 35 -15 28 0 35 -4 35 -20 0 -17 7 -20 50
-20 38 0 50 -4 50 -15 0 -10 11 -15 35 -15 28 0 35 -4 35 -20 0 -16 7 -20 35
-20 24 0 35 -5 35 -15 0 -12 16 -15 85 -15 69 0 85 3 85 15 0 10 11 15 35 15
28 0 35 4 35 20 0 16 7 20 35 20 24 0 35 5 35 15 0 11 12 15 50 15 43 0 50 3
50 20 0 16 7 20 35 20 24 0 35 5 35 15 0 10 11 15 35 15 28 0 35 4 35 20 0 16
7 20 35 20 24 0 35 5 35 15 0 10 11 15 35 15 28 0 35 4 35 20 0 17 7 20 50 20
38 0 50 4 50 15 0 10 11 15 35 15 24 0 35 5 35 15 0 10 11 15 35 15 28 0 35 4
35 20 0 16 7 20 35 20 24 0 35 5 35 15 0 10 11 15 35 15 28 0 35 4 35 20 0 16
7 20 30 20 20 0 30 5 30 15 0 10 11 15 35 15 28 0 35 4 35 20 0 16 7 20 35 20
24 0 35 5 35 15 0 10 11 15 35 15 28 0 35 4 35 20 0 16 7 20 35 20 24 0 35 5
35 15 0 10 11 15 35 15 28 0 35 4 35 20 0 11 7 20 15 20 8 0 15 7 15 15 0 10
11 15 35 15 24 0 35 5 35 15 0 10 11 15 35 15 28 0 35 4 35 20 0 16 7 20 35
20 24 0 35 5 35 15 0 10 11 15 35 15 28 0 35 4 35 20 0 11 7 20 15 20 8 0 15
7 15 15 0 10 11 15 35 15 28 0 35 4 35 20 0 16 7 20 35 20 24 0 35 5 35 15 0
10 11 15 35 15 28 0 35 4 35 20 0 13 7 20 20 20 11 0 20 7 20 15 0 10 10 15
30 15 20 0 30 5 30 15 0 10 11 15 35 15 28 0 35 4 35 20 0 13 7 20 20 20 11 0
20 7 20 15 0 10 11 15 35 15 28 0 35 4 35 20 0 16 7 20 35 20 24 0 35 5 35 15
0 8 7 15 15 15 8 0 15 9 15 20 0 16 7 20 35 20 24 0 35 5 35 15 0 8 7 15 15
15 8 0 15 9 15 20 0 16 7 20 35 20 24 0 35 5 35 15 0 8 9 15 20 15 11 0 20 7
20 15 0 10 11 15 35 15 28 0 35 4 35 20 0 11 7 20 15 20 8 0 15 7 15 15 0 10
11 15 35 15 28 0 35 4 35 20 0 11 7 20 15 20 8 0 15 7 15 15 0 10 11 15 35 15
28 0 35 4 35 20 0 13 7 20 20 20 11 0 20 7 20 15 0 10 11 15 35 15 28 0 35 4
35 20 0 11 7 20 15 20 8 0 15 7 15 15 0 8 7 15 15 15 8 0 15 7 15 15 0 10 11
15 35 15 28 0 35 4 35 20 0 13 7 20 20 20 11 0 20 7 20 15 0 8 7 15 15 15 8 0
15 9 15 20 0 16 7 20 35 20 24 0 35 5 35 15 0 8 9 15 20 15 13 0 20 7 20 20 0
11 7 20 15 20 8 0 15 7 15 15 0 10 11 15 35 15 28 0 35 4 35 20 0 11 7 20 15
20 8 0 15 7 15 15 0 8 9 15 20 15 11 0 20 7 20 15 0 8 7 15 15 15 8 0 15 9 15
20 0 16 7 20 35 20 24 0 35 5 35 15 0 8 9 15 20 15 13 0 20 7 20 20 0 11 7 20
15 20 8 0 15 7 15 15 0 8 9 15 20 15 13 0 20 7 20 20 0 16 7 20 30 20 20 0 30
5 30 15 0 8 9 15 20 15 13 0 20 7 20 20 0 11 7 20 15 20 8 0 15 7 15 15 0 8 9
15 20 15 13 0 20 7 20 20 0 11 7 20 15 20 8 0 15 7 15 15 0 8 9 15 20 15 11 0
20 7 20 15 0 8 7 15 15 15 8 0 15 9 15 20 0 16 7 20 35 20 24 0 35 5 35 15 0
8 7 15 15 15 8 0 15 9 15 20 0 13 7 20 20 20 11 0 20 7 20 15 0 8 7 15 15 15
8 0 15 9 15 20 0 13 7 20 20 20 11 0 20 7 20 15 0 8 7 15 15 15 8 0 15 9 15
20 0 13 7 20 20 20 11 0 20 7 20 15 0 8 7 15 15 15 8 0 15 7 15 15 0 8 9 15
20 15 13 0 20 7 20 20 0 11 7 20 15 20 8 0 15 7 15 15 0 8 7 15 15 15 8 0 15
9 15 20 0 13 7 20 20 20 11 0 20 7 20 15 0 8 7 15 15 15 8 0 15 9 15 20 0 13
7 20 20 20 11 0 20 7 20 15 0 8 7 15 15 15 8 0 15 9 15 20 0 13 7 20 20 20 11
0 20 7 20 15 0 8 7 15 15 15 8 0 15 7 15 15 0 8 9 15 20 15 13 0 20 7 20 20 0
11 7 20 15 20 8 0 15 7 15 15 0 8 7 15 15 15 8 0 15 9 15 20 0 13 7 20 20 20
11 0 20 7 20 15 0 8 7 15 15 15 8 0 15 9 15 20 0 13 7 20 20 20 16 0 20 7 20
35 0 24 5 35 15 35 8 0 15 7 15 15 0 8 9 15 20 15 11 0 20 7 20 15 0 8 7 15
15 15 8 0 15 9 15 20 0 13 7 20 20 20 11 0 20 7 20 15 0 8 7 15 15 15 8 0 15
9 15 20 0 11 7 20 15 20 10 0 15 11 15 35 l0 35 55 0 c48 0 55 -2 55 -20 0
-16 7 -20 35 -20 24 0 35 -5 35 -15 0 -10 11 -15 35 -15 28 0 35 -4 35 -20 0
-17 7 -20 50 -20 38 0 50 -4 50 -15 0 -11 12 -15 50 -15 43 0 50 -3 50 -20 0
-18 7 -20 55 -20 42 0 55 -3 55 -15 0 -12 14 -15 65 -15 51 0 65 -3 65 -15 0
-12 17 -15 90 -15 83 0 90 -1 90 -20 0 -18 7 -20 65 -20 l65 0 0 -35 c0 -28 4
-35 20 -35 16 0 20 -7 20 -35 0 -24 5 -35 15 -35 10 0 15 -11 15 -35 0 -28 4
-35 20 -35 11 0 20 -7 20 -15 0 -8 7 -15 15 -15 10 0 15 -11 15 -35 0 -28 4
-35 20 -35 16 0 20 -7 20 -35 0 -24 5 -35 15 -35 10 0 15 -11 15 -35 0 -28 4
-35 20 -35 11 0 20 -7 20 -15 0 -8 7 -15 15 -15 10 0 15 -11 15 -35 0 -24 5
-35 15 -35 10 0 15 -11 15 -35 0 -28 4 -35 20 -35 16 0 20 -7 20 -35 0 -24 5
-35 15 -35 8 0 15 -7 15 -15 0 -8 9 -15 20 -15 16 0 20 -7 20 -35 0 -24 5 -35
15 -35 12 0 15 -16 15 -85 0 -69 -3 -85 -15 -85 -13 0 -15 -30 -15 -210 0
-180 2 -210 15 -210 11 0 15 -12 15 -50 0 -43 3 -50 20 -50 17 0 20 -7 20 -50
0 -38 4 -50 15 -50 10 0 15 -11 15 -35 0 -28 4 -35 20 -35 13 0 20 -7 20 -20
0 -11 7 -20 15 -20 10 0 15 -11 15 -35 0 -24 5 -35 15 -35 8 0 15 -7 15 -15 0
-8 9 -15 20 -15 13 0 20 -7 20 -20 0 -11 7 -20 15 -20 8 0 15 -7 15 -15 0 -10
11 -15 35 -15 24 0 35 -5 35 -15 0 -8 9 -15 20 -15 13 0 20 -7 20 -20 0 -11 7
-20 15 -20 8 0 15 -7 15 -15 0 -10 11 -15 35 -15 28 0 35 -4 35 -20 0 -16 7
-20 35 -20 24 0 35 -5 35 -15 0 -10 11 -15 35 -15 28 0 35 -4 35 -20 0 -17 7
-20 50 -20 38 0 50 -4 50 -15 0 -12 14 -15 70 -15 63 0 70 -2 70 -20 0 -18 7
-20 85 -20 69 0 85 -3 85 -15 0 -12 13 -15 55 -15 l55 0 0 -50 c0 -43 -3 -50
-20 -50 -16 0 -20 -7 -20 -35 0 -24 -5 -35 -15 -35 -10 0 -15 -11 -15 -35 0
-24 5 -35 15 -35 8 0 15 7 15 15 0 12 14 15 70 15 63 0 70 2 70 20 0 17 7 20
50 20 38 0 50 4 50 15 0 10 11 15 35 15 28 0 35 4 35 20 0 16 7 20 35 20 24 0
35 5 35 15 0 10 11 15 35 15 28 0 35 4 35 20 0 11 7 20 15 20 8 0 15 7 15 15
0 10 11 15 35 15 24 0 35 5 35 15 0 8 9 15 20 15 13 0 20 7 20 20 0 11 7 20
15 20 8 0 15 7 15 15 0 8 9 15 20 15 13 0 20 7 20 20 0 11 7 20 15 20 8 0 15
7 15 15 0 8 7 15 15 15 8 0 15 9 15 20 0 13 7 20 20 20 16 0 20 7 20 35 0 24
5 35 15 35 8 0 15 7 15 15 0 8 9 15 20 15 16 0 20 7 20 35 0 24 5 35 15 35 10
0 15 11 15 35 0 28 4 35 20 35 11 0 20 7 20 15 0 13 29 15 205 15 198 0 205 1
205 20 0 18 7 20 85 20 69 0 85 3 85 15 0 10 11 15 35 15 28 0 35 4 35 20 0
16 7 20 35 20 24 0 35 5 35 15 0 10 11 15 35 15 24 0 35 5 35 15 0 8 7 15 15
15 8 0 15 9 15 20 0 16 7 20 35 20 24 0 35 5 35 15 0 8 9 15 20 15 13 0 20 7
20 20 0 11 7 20 15 20 10 0 15 11 15 35 0 28 4 35 20 35 11 0 20 7 20 15 0 8
7 15 15 15 8 0 15 9 15 20 0 13 7 20 20 20 16 0 20 7 20 30 0 20 5 30 15 30
10 0 15 11 15 35 0 24 5 35 15 35 12 0 15 13 15 55 0 48 2 55 20 55 17 0 20 7
20 50 0 38 4 50 15 50 13 0 15 20 15 120 0 113 1 120 20 120 19 0 20 7 20 210
l0 210 50 0 c38 0 50 4 50 15 0 11 12 15 50 15 38 0 50 4 50 15 0 10 11 15 35
15 28 0 35 4 35 20 0 16 7 20 35 20 24 0 35 5 35 15 0 8 9 15 20 15 13 0 20 7
20 20 0 11 7 20 15 20 12 0 15 -18 15 -105 0 -98 1 -105 20 -105 13 0 20 7 20
20 0 11 7 20 15 20 8 0 15 7 15 15 0 8 7 15 15 15 8 0 15 7 15 15 0 8 9 15 20
15 13 0 20 7 20 20 0 11 7 20 15 20 8 0 15 7 15 15 0 8 9 15 20 15 13 0 20 7
20 20 0 11 7 20 15 20 8 0 15 7 15 15 0 8 9 15 20 15 16 0 20 7 20 35 0 24 5
35 15 35 10 0 15 11 15 35 0 28 4 35 20 35 16 0 20 7 20 35 0 24 5 35 15 35
12 0 15 14 15 70 0 63 2 70 20 70 19 0 20 7 20 135 0 113 2 135 15 135 8 0 15
-7 15 -15 0 -8 7 -15 15 -15 8 0 15 -9 15 -20 0 -13 7 -20 20 -20 11 0 20 -7
20 -15 0 -8 7 -15 15 -15 8 0 15 -9 15 -20 0 -13 7 -20 20 -20 20 0 20 7 20
295 0 288 0 295 -20 295 -19 0 -20 7 -20 105 0 87 -3 105 -15 105 -12 0 -15
14 -15 70 0 63 -2 70 -20 70 -17 0 -20 7 -20 50 0 38 -4 50 -15 50 -10 0 -15
11 -15 35 0 24 -5 35 -15 35 -11 0 -15 12 -15 50 0 43 -3 50 -20 50 -16 0 -20
7 -20 35 0 24 -5 35 -15 35 -10 0 -15 11 -15 35 0 28 -4 35 -20 35 -16 0 -20
7 -20 35 0 24 -5 35 -15 35 -8 0 -15 7 -15 15 0 8 -9 15 -20 15 -16 0 -20 7
-20 35 l0 35 55 0 c42 0 55 -3 55 -15 0 -10 11 -15 35 -15 28 0 35 -4 35 -20
0 -11 7 -20 15 -20 8 0 15 -7 15 -15 0 -8 7 -15 15 -15 8 0 15 -9 15 -20 0
-13 7 -20 20 -20 18 0 20 7 20 55 0 42 3 55 15 55 13 0 15 20 15 120 0 113 1
120 20 120 19 0 20 7 20 120 0 113 -1 120 -20 120 -19 0 -20 7 -20 120 0 100
-2 120 -15 120 -12 0 -15 14 -15 70 0 63 -2 70 -20 70 -17 0 -20 7 -20 50 0
38 -4 50 -15 50 -10 0 -15 11 -15 35 0 24 -5 35 -15 35 -10 0 -15 11 -15 35 0
28 -4 35 -20 35 -16 0 -20 7 -20 35 0 24 -5 35 -15 35 -10 0 -15 11 -15 35 0
28 -4 35 -20 35 -16 0 -20 7 -20 35 0 24 -5 35 -15 35 -8 0 -15 7 -15 15 0 8
-9 15 -20 15 -16 0 -20 7 -20 35 0 24 -5 35 -15 35 -8 0 -15 7 -15 15 0 8 -9
15 -20 15 -16 0 -20 7 -20 35 0 24 -5 35 -15 35 -8 0 -15 9 -15 20 0 13 -7 20
-20 20 -11 0 -20 7 -20 15 0 8 -7 15 -15 15 -8 0 -15 9 -15 20 0 11 -7 20 -15
20 -8 0 -15 7 -15 15 0 8 -9 15 -20 15 -13 0 -20 7 -20 20 0 11 -7 20 -15 20
-8 0 -15 7 -15 15 0 8 -9 15 -20 15 -11 0 -20 7 -20 15 0 8 -7 15 -15 15 -8 0
-15 9 -15 20 0 13 -7 20 -20 20 -11 0 -20 7 -20 15 0 8 -7 15 -15 15 -8 0 -15
9 -15 20 0 16 -7 20 -35 20 -24 0 -35 5 -35 15 0 8 -7 15 -15 15 -8 0 -15 9
-15 20 0 13 -7 20 -20 20 -11 0 -20 7 -20 15 0 10 -11 15 -35 15 -28 0 -35 4
-35 20 0 16 -7 20 -35 20 -24 0 -35 5 -35 15 0 10 -11 15 -35 15 -24 0 -35 5
-35 15 0 10 -10 15 -30 15 -23 0 -30 4 -30 20 0 16 -7 20 -35 20 -24 0 -35 5
-35 15 0 12 -13 15 -55 15 -48 0 -55 2 -55 20 0 18 -7 20 -65 20 -51 0 -65 3
-65 15 0 13 -45 15 -345 15 -300 0 -345 -2 -345 -15 0 -12 -17 -15 -90 -15
-83 0 -90 -1 -90 -20 0 -17 -7 -20 -50 -20 -38 0 -50 -4 -50 -15 0 -8 -7 -15
-15 -15 -13 0 -15 28 -15 190 0 183 -1 190 -20 190 -18 0 -20 7 -20 85 0 69
-3 85 -15 85 -10 0 -15 11 -15 35 0 24 5 35 15 35 10 0 15 11 15 35 0 28 4 35
20 35 16 0 20 7 20 35 0 24 5 35 15 35 10 0 15 11 15 35 0 24 5 35 15 35 10 0
15 11 15 35 0 28 4 35 20 35 16 0 20 7 20 30 0 20 5 30 15 30 10 0 15 11 15
35 0 28 4 35 20 35 18 0 20 7 20 55 0 42 3 55 15 55 10 0 15 11 15 35 0 28 4
35 20 35 16 0 20 7 20 30 0 20 5 30 15 30 10 0 15 11 15 35 0 28 4 35 20 35
16 0 20 7 20 35 0 24 5 35 15 35 10 0 15 11 15 35 0 28 4 35 20 35 13 0 20 7
20 20 0 20 7 20 395 20 344 0 395 2 395 15 0 8 7 15 15 15 10 0 15 11 15 35 0
28 4 35 20 35 16 0 20 7 20 35 0 24 5 35 15 35 10 0 15 11 15 35 0 28 4 35 20
35 16 0 20 7 20 35 0 24 5 35 15 35 10 0 15 10 15 30 0 20 5 30 15 30 10 0 15
11 15 35 0 28 4 35 20 35 18 0 20 7 20 55 0 42 3 55 15 55 10 0 15 11 15 35 0
28 4 35 20 35 16 0 20 7 20 35 0 24 5 35 15 35 10 0 15 10 15 30 0 23 4 30 20
30 16 0 20 7 20 35 0 24 5 35 15 35 10 0 15 11 15 35 0 28 4 35 20 35 16 0 20
7 20 35 0 24 5 35 15 35 11 0 15 12 15 50 0 38 4 50 15 50 10 0 15 11 15 35 0
28 4 35 20 35 16 0 20 7 20 35 0 24 5 35 15 35 10 0 15 11 15 35 0 28 4 35 20
35 16 0 20 7 20 35 0 24 5 35 15 35 10 0 15 11 15 35 0 28 4 35 20 35 16 0 20
7 20 35 0 24 5 35 15 35 11 0 15 12 15 50 0 43 3 50 20 50 16 0 20 7 20 35 0
24 5 35 15 35 10 0 15 11 15 35 0 24 5 35 15 35 10 0 15 11 15 35 0 28 4 35
20 35 16 0 20 7 20 35 0 24 5 35 15 35 8 0 15 7 15 15 0 13 111 15 935 15
l935 0 0 -50 c0 -43 -3 -50 -20 -50 -16 0 -20 -7 -20 -35 0 -24 -5 -35 -15
-35 -10 0 -15 -11 -15 -35 0 -28 -4 -35 -20 -35 -16 0 -20 -7 -20 -35 0 -24
-5 -35 -15 -35 -10 0 -15 -11 -15 -35 0 -28 -4 -35 -20 -35 -16 0 -20 -7 -20
-35 0 -24 -5 -35 -15 -35 -10 0 -15 -11 -15 -35 0 -28 -4 -35 -20 -35 -17 0
-20 -7 -20 -50 0 -38 -4 -50 -15 -50 -10 0 -15 -11 -15 -35 0 -28 -4 -35 -20
-35 -16 0 -20 -7 -20 -35 0 -24 -5 -35 -15 -35 -10 0 -15 -11 -15 -35 0 -24
-5 -35 -15 -35 -10 0 -15 -10 -15 -30 0 -23 -4 -30 -20 -30 -16 0 -20 -7 -20
-35 0 -24 -5 -35 -15 -35 -10 0 -15 -11 -15 -35 0 -28 -4 -35 -20 -35 -18 0
-20 -7 -20 -55 0 -42 -3 -55 -15 -55 -10 0 -15 -10 -15 -30 0 -23 -4 -30 -20
-30 -16 0 -20 -7 -20 -35 0 -24 -5 -35 -15 -35 -10 0 -15 -11 -15 -35 0 -28
-4 -35 -20 -35 -16 0 -20 -7 -20 -35 0 -24 -5 -35 -15 -35 -10 0 -15 -11 -15
-35 0 -24 -5 -35 -15 -35 -10 0 -15 -11 -15 -35 0 -28 -4 -35 -20 -35 -17 0
-20 -7 -20 -50 0 -38 -4 -50 -15 -50 -10 0 -15 -11 -15 -35 0 -28 -4 -35 -20
-35 -16 0 -20 -7 -20 -35 0 -24 -5 -35 -15 -35 -10 0 -15 -11 -15 -35 0 -28
-4 -35 -20 -35 -11 0 -20 -7 -20 -15 0 -13 -112 -15 -945 -15 -938 0 -945 0
-945 -20 0 -13 -7 -20 -20 -20 -16 0 -20 -7 -20 -35 0 -24 -5 -35 -15 -35 -10
0 -15 -11 -15 -35 0 -28 -4 -35 -20 -35 -16 0 -20 -7 -20 -35 0 -24 -5 -35
-15 -35 -11 0 -15 -12 -15 -50 0 -38 -4 -50 -15 -50 -10 0 -15 -11 -15 -35 0
-28 -4 -35 -20 -35 -16 0 -20 -7 -20 -35 0 -24 -5 -35 -15 -35 -10 0 -15 -11
-15 -35 0 -28 -4 -35 -20 -35 -16 0 -20 -7 -20 -30 0 -20 -5 -30 -15 -30 -10
0 -15 -11 -15 -35 0 -28 -4 -35 -20 -35 -16 0 -20 -7 -20 -35 0 -24 -5 -35
-15 -35 -12 0 -15 -13 -15 -55 0 -48 -2 -55 -20 -55 -16 0 -20 -7 -20 -30 0
-20 -5 -30 -15 -30 -10 0 -15 -11 -15 -35 l0 -35 120 0 c113 0 120 -1 120 -20
0 -18 7 -20 85 -20 69 0 85 -3 85 -15 0 -12 13 -15 55 -15 48 0 55 -2 55 -20
0 -17 7 -20 50 -20 38 0 50 -4 50 -15 0 -11 12 -15 50 -15 43 0 50 -3 50 -20
0 -16 7 -20 35 -20 24 0 35 -5 35 -15 0 -10 11 -15 35 -15 28 0 35 -4 35 -20
0 -16 7 -20 35 -20 24 0 35 -5 35 -15 0 -10 11 -15 35 -15 24 0 35 -5 35 -15
0 -8 7 -15 15 -15 8 0 15 -9 15 -20 0 -16 7 -20 35 -20 24 0 35 -5 35 -15 0
-8 9 -15 20 -15 13 0 20 -7 20 -20 0 -16 7 -20 35 -20 24 0 35 -5 35 -15 0 -8
7 -15 15 -15 8 0 15 -9 15 -20 0 -11 7 -20 15 -20 8 0 15 -7 15 -15 0 -8 9
-15 20 -15 13 0 20 -7 20 -20 0 -11 7 -20 15 -20 8 0 15 -7 15 -15 0 -8 9 -15
20 -15 11 0 20 -7 20 -15 0 -8 7 -15 15 -15 8 0 15 -9 15 -20 0 -13 7 -20 20
-20 11 0 20 -7 20 -15 0 -8 7 -15 15 -15 8 0 15 -9 15 -20 0 -13 7 -20 20 -20
11 0 20 -7 20 -15 0 -8 7 -15 15 -15 10 0 15 11 15 35 0 28 4 35 20 35 16 0
20 7 20 35 0 24 5 35 15 35 10 0 15 10 15 30 0 20 5 30 15 30 10 0 15 11 15
35 0 28 4 35 20 35 18 0 20 7 20 55 0 42 3 55 15 55 10 0 15 11 15 35 0 28 4
35 20 35 16 0 20 7 20 30 0 20 5 30 15 30 10 0 15 11 15 35 0 28 4 35 20 35
16 0 20 7 20 35 0 24 5 35 15 35 10 0 15 11 15 35 0 28 4 35 20 35 16 0 20 7
20 35 0 24 5 35 15 35 11 0 15 12 15 50 0 38 4 50 15 50 10 0 15 11 15 35 0
28 4 35 20 35 16 0 20 7 20 35 0 24 5 35 15 35 10 0 15 11 15 35 0 28 4 35 20
35 16 0 20 7 20 35 0 24 5 35 15 35 10 0 15 11 15 35 0 28 4 35 20 35 16 0 20
7 20 35 0 24 5 35 15 35 11 0 15 12 15 50 0 43 3 50 20 50 16 0 20 7 20 35 0
24 5 35 15 35 10 0 15 11 15 35 0 24 5 35 15 35 10 0 15 11 15 35 0 28 4 35
20 35 16 0 20 7 20 35 0 24 5 35 15 35 10 0 15 11 15 35 l0 35 965 0 965 0 0
30 c0 23 4 30 20 30 16 0 20 7 20 35 0 24 5 35 15 35 12 0 15 13 15 55 0 48 2
55 20 55 16 0 20 7 20 35 0 24 5 35 15 35 10 0 15 10 15 30 0 23 4 30 20 30
16 0 20 7 20 35 0 24 5 35 15 35 10 0 15 11 15 35 0 24 5 35 15 35 10 0 15 11
15 35 0 28 4 35 20 35 16 0 20 7 20 35 0 24 5 35 15 35 11 0 15 12 15 50 0 43
3 50 20 50 16 0 20 7 20 35 0 24 5 35 15 35 10 0 15 11 15 35 0 28 4 35 20 35
16 0 20 7 20 35 0 24 5 35 15 35 10 0 15 11 15 35 0 28 4 35 20 35 16 0 20 7
20 35 0 24 5 35 15 35 10 0 15 11 15 35 0 28 4 35 20 35 17 0 20 7 20 50 0 38
4 50 15 50 10 0 15 11 15 35 0 24 5 35 15 35 10 0 15 11 15 35 0 28 4 35 20
35 16 0 20 7 20 35 0 24 5 35 15 35 10 0 15 11 15 35 0 28 4 35 20 35 16 0 20
7 20 35 0 24 5 35 15 35 10 0 15 10 15 30 0 23 4 30 20 30 18 0 20 7 20 55 0
42 3 55 15 55 10 0 15 11 15 35 0 28 4 35 20 35 11 0 20 7 20 15 0 13 112 15
945 15 938 0 945 0 945 20 0 13 7 20 20 20 16 0 20 7 20 30 0 20 5 30 15 30
10 0 15 11 15 35 0 24 5 35 15 35 10 0 15 11 15 35 0 28 4 35 20 35 16 0 20 7
20 35 0 24 5 35 15 35 10 0 15 11 15 35 0 28 4 35 20 35 17 0 20 7 20 50 0 38
4 50 15 50 10 0 15 11 15 35 0 28 4 35 20 35 16 0 20 7 20 35 0 24 5 35 15 35
10 0 15 11 15 35 0 28 4 35 20 35 16 0 20 7 20 35 0 24 5 35 15 35 10 0 15 11
15 35 0 24 5 35 15 35 10 0 15 11 15 35 0 28 4 35 20 35 17 0 20 7 20 50 0 38
4 50 15 50 10 0 15 11 15 35 0 28 4 35 20 35 16 0 20 7 20 35 0 24 5 35 15 35
10 0 15 11 15 35 0 28 4 35 20 35 16 0 20 7 20 35 0 24 5 35 15 35 10 0 15 11
15 35 0 28 4 35 20 35 16 0 20 7 20 30 0 20 5 30 15 30 12 0 15 13 15 55 0 42
3 55 15 55 10 0 15 11 15 35 0 28 4 35 20 35 16 0 20 7 20 35 0 24 5 35 15 35
10 0 15 10 15 30 0 23 4 30 20 30 16 0 20 7 20 35 0 24 5 35 15 35 10 0 15 11
15 35 0 24 5 35 15 35 8 0 15 9 15 20 0 20 -7 20 -960 20 l-960 0 0 -35 c0
-28 -4 -35 -20 -35 -16 0 -20 -7 -20 -35 0 -24 -5 -35 -15 -35 -10 0 -15 -11
-15 -35 0 -28 -4 -35 -20 -35 -16 0 -20 -7 -20 -35 0 -24 -5 -35 -15 -35 -11
0 -15 -12 -15 -50 0 -43 -3 -50 -20 -50 -16 0 -20 -7 -20 -35 0 -24 -5 -35
-15 -35 -10 0 -15 -11 -15 -35 0 -24 -5 -35 -15 -35 -10 0 -15 -11 -15 -35 0
-28 -4 -35 -20 -35 -16 0 -20 -7 -20 -35 0 -24 -5 -35 -15 -35 -10 0 -15 -11
-15 -35 0 -28 -4 -35 -20 -35 -16 0 -20 -7 -20 -35 0 -24 -5 -35 -15 -35 -11
0 -15 -12 -15 -50 0 -43 -3 -50 -20 -50 -16 0 -20 -7 -20 -35 0 -24 -5 -35
-15 -35 -10 0 -15 -11 -15 -35 0 -28 -4 -35 -20 -35 -16 0 -20 -7 -20 -35 0
-24 -5 -35 -15 -35 -10 0 -15 -10 -15 -30 0 -20 -5 -30 -15 -30 -10 0 -15 -11
-15 -35 0 -28 -4 -35 -20 -35 -16 0 -20 -7 -20 -35 0 -24 -5 -35 -15 -35 -12
0 -15 -13 -15 -55 0 -48 -2 -55 -20 -55 -16 0 -20 -7 -20 -30 0 -20 -5 -30
-15 -30 -10 0 -15 -11 -15 -35 0 -28 -4 -35 -20 -35 -16 0 -20 -7 -20 -35 0
-24 -5 -35 -15 -35 -10 0 -15 -11 -15 -35 0 -28 -4 -35 -20 -35 -16 0 -20 -7
-20 -35 0 -24 -5 -35 -15 -35 -11 0 -15 -12 -15 -50 0 -38 -4 -50 -15 -50 -8
0 -15 -9 -15 -20 0 -20 -7 -20 -950 -20 -943 0 -950 0 -950 20 0 11 7 20 15
20 10 0 15 10 15 30 0 23 4 30 20 30 16 0 20 7 20 35 0 24 5 35 15 35 12 0 15
13 15 55 0 48 2 55 20 55 16 0 20 7 20 35 0 24 5 35 15 35 10 0 15 11 15 35 0
28 4 35 20 35 16 0 20 7 20 30 0 20 5 30 15 30 10 0 15 11 15 35 0 28 4 35 20
35 16 0 20 7 20 35 0 24 5 35 15 35 10 0 15 11 15 35 0 24 5 35 15 35 11 0 15
12 15 50 0 43 3 50 20 50 16 0 20 7 20 35 0 24 5 35 15 35 10 0 15 11 15 35 0
28 4 35 20 35 16 0 20 7 20 35 0 24 5 35 15 35 10 0 15 11 15 35 0 28 4 35 20
35 16 0 20 7 20 35 0 24 5 35 15 35 10 0 15 11 15 35 0 28 4 35 20 35 17 0 20
7 20 50 0 38 4 50 15 50 10 0 15 11 15 35 0 24 5 35 15 35 10 0 15 11 15 35 0
28 4 35 20 35 16 0 20 7 20 35 0 24 5 35 15 35 10 0 15 11 15 35 0 28 4 35 20
35 16 0 20 7 20 35 0 24 5 35 15 35 10 0 15 10 15 30 0 23 4 30 20 30 18 0 20
7 20 55 0 42 3 55 15 55 10 0 15 11 15 35 l0 35 -945 0 -945 0 0 -35 c0 -28
-4 -35 -20 -35 -16 0 -20 -7 -20 -35 0 -24 -5 -35 -15 -35 -10 0 -15 -11 -15
-35 0 -28 -4 -35 -20 -35 -16 0 -20 -7 -20 -35 0 -24 -5 -35 -15 -35 -10 0
-15 -11 -15 -35 0 -28 -4 -35 -20 -35 -16 0 -20 -7 -20 -35 0 -24 -5 -35 -15
-35 -11 0 -15 -12 -15 -50 0 -43 -3 -50 -20 -50 -16 0 -20 -7 -20 -35 0 -24
-5 -35 -15 -35 -10 0 -15 -11 -15 -35 0 -24 -5 -35 -15 -35 -10 0 -15 -11 -15
-35 0 -28 -4 -35 -20 -35 -16 0 -20 -7 -20 -35 0 -24 -5 -35 -15 -35 -10 0
-15 -10 -15 -30 0 -23 -4 -30 -20 -30 -16 0 -20 -7 -20 -35 0 -24 -5 -35 -15
-35 -12 0 -15 -13 -15 -55 0 -48 -2 -55 -20 -55 -16 0 -20 -7 -20 -35 0 -24
-5 -35 -15 -35 -10 0 -15 -10 -15 -30 0 -23 -4 -30 -20 -30 -16 0 -20 -7 -20
-35 0 -24 -5 -35 -15 -35 -10 0 -15 -11 -15 -35 0 -24 -5 -35 -15 -35 -10 0
-15 -11 -15 -35 0 -28 -4 -35 -20 -35 -16 0 -20 -7 -20 -35 0 -24 -5 -35 -15
-35 -11 0 -15 -12 -15 -50 0 -43 -3 -50 -20 -50 -16 0 -20 -7 -20 -35 0 -24
-5 -35 -15 -35 -10 0 -15 -11 -15 -35 0 -28 -4 -35 -20 -35 -16 0 -20 -7 -20
-35 0 -24 -5 -35 -15 -35 -10 0 -15 -11 -15 -35 0 -28 -4 -35 -20 -35 -16 0
-20 -7 -20 -35 l0 -35 -945 0 c-938 0 -945 0 -945 20 0 11 7 20 15 20 11 0 15
12 15 50 0 43 3 50 20 50 16 0 20 7 20 35 0 24 5 35 15 35 10 0 15 11 15 35 0
28 4 35 20 35 16 0 20 7 20 35 0 24 5 35 15 35 10 0 15 11 15 35 0 28 4 35 20
35 16 0 20 7 20 30 0 20 5 30 15 30 10 0 15 11 15 35 0 24 5 35 15 35 12 0 15
13 15 55 0 48 2 55 20 55 16 0 20 7 20 35 0 24 5 35 15 35 10 0 15 10 15 30 0
23 4 30 20 30 16 0 20 7 20 35 0 24 5 35 15 35 10 0 15 11 15 35 0 28 4 35 20
35 16 0 20 7 20 35 0 24 5 35 15 35 11 0 15 12 15 50 0 43 3 50 20 50 16 0 20
7 20 35 0 24 5 35 15 35 10 0 15 11 15 35 0 24 5 35 15 35 10 0 15 11 15 35 0
28 4 35 20 35 16 0 20 7 20 35 0 24 5 35 15 35 10 0 15 11 15 35 0 28 4 35 20
35 16 0 20 7 20 35 0 24 5 35 15 35 11 0 15 12 15 50 0 43 3 50 20 50 16 0 20
7 20 35 0 24 5 35 15 35 10 0 15 11 15 35 0 28 4 35 20 35 16 0 20 7 20 35 0
24 5 35 15 35 10 0 15 11 15 35 l0 35 -950 0 c-943 0 -950 0 -950 -20 0 -11
-7 -20 -15 -20 -10 0 -15 -11 -15 -35 0 -24 -5 -35 -15 -35 -11 0 -15 -12 -15
-50 0 -43 -3 -50 -20 -50 -16 0 -20 -7 -20 -35 0 -24 -5 -35 -15 -35 -10 0
-15 -11 -15 -35 0 -28 -4 -35 -20 -35 -16 0 -20 -7 -20 -35 0 -24 -5 -35 -15
-35 -10 0 -15 -11 -15 -35 0 -28 -4 -35 -20 -35 -16 0 -20 -7 -20 -30 0 -20
-5 -30 -15 -30 -10 0 -15 -11 -15 -35 0 -28 -4 -35 -20 -35 -18 0 -20 -7 -20
-55 0 -42 -3 -55 -15 -55 -10 0 -15 -11 -15 -35 0 -24 -5 -35 -15 -35 -10 0
-15 -10 -15 -30 0 -23 -4 -30 -20 -30 -13 0 -20 -7 -20 -20 0 -11 -7 -20 -15
-20 -13 0 -15 217 -15 1895 l0 1895 -70 0 c-63 0 -70 2 -70 20 0 19 -7 20
-140 20 -118 0 -140 2 -140 15 0 13 -22 15 -135 15 -128 0 -135 1 -135 20 0
19 -7 20 -140 20 -118 0 -140 2 -140 15 0 13 -22 15 -135 15 -113 0 -135 2
-135 15 0 13 -21 15 -125 15 l-125 0 0 35 c0 28 4 35 20 35 13 0 20 7 20 20 0
11 7 20 15 20 10 0 15 11 15 35 0 28 4 35 20 35 16 0 20 7 20 35 0 24 5 35 15
35 10 0 15 10 15 30 0 23 4 30 20 30 18 0 20 7 20 55 0 42 3 55 15 55 11 0 15
12 15 50 0 43 3 50 20 50 18 0 20 7 20 70 0 56 3 70 15 70 13 0 15 22 15 140
0 118 2 140 15 140 13 0 15 24 15 155 0 131 -2 155 -15 155 -13 0 -15 24 -15
155 0 131 -2 155 -15 155 -12 0 -15 14 -15 65 0 58 -2 65 -20 65 -18 0 -20 7
-20 70 0 56 -3 70 -15 70 -11 0 -15 12 -15 50 0 43 -3 50 -20 50 -18 0 -20 7
-20 55 0 48 2 55 20 55 20 0 20 7 20 275 0 268 0 275 -20 275 -16 0 -20 7 -20
35 0 24 -5 35 -15 35 -10 0 -15 11 -15 35 0 28 -4 35 -20 35 -16 0 -20 7 -20
35 0 24 -5 35 -15 35 -8 0 -15 7 -15 15 0 8 -9 15 -20 15 -13 0 -20 7 -20 20
0 16 -7 20 -30 20 -20 0 -30 5 -30 15 0 10 -11 15 -35 15 -24 0 -35 5 -35 15
0 12 -17 15 -90 15 -83 0 -90 1 -90 20 0 19 -7 20 -170 20 -144 0 -170 2 -170
15 0 10 -11 15 -35 15 -28 0 -35 4 -35 20 0 16 -7 20 -35 20 -24 0 -35 5 -35
15 0 10 -11 15 -35 15 -28 0 -35 4 -35 20 0 16 -7 20 -35 20 -24 0 -35 5 -35
15 0 11 -12 15 -50 15 -43 0 -50 3 -50 20 0 19 -7 20 -190 20 -183 0 -190 -1
-190 -20z m410 -345 c0 -12 14 -15 70 -15 63 0 70 -2 70 -20 0 -16 7 -20 35
-20 24 0 35 -5 35 -15 0 -10 11 -15 35 -15 28 0 35 -4 35 -20 0 -11 7 -20 15
-20 8 0 15 -7 15 -15 0 -13 28 -15 190 -15 183 0 190 -1 190 -20 0 -18 7 -20
70 -20 56 0 70 -3 70 -15 0 -10 11 -15 35 -15 24 0 35 -5 35 -15 0 -8 9 -15
20 -15 13 0 20 -7 20 -20 0 -11 7 -20 15 -20 8 0 15 -7 15 -15 0 -8 7 -15 15
-15 13 0 15 -21 15 -125 0 -104 -2 -125 -15 -125 -10 0 -15 11 -15 35 0 24 -5
35 -15 35 -8 0 -15 9 -15 20 0 16 -7 20 -35 20 -24 0 -35 5 -35 15 0 13 -36
15 -260 15 -253 0 -260 1 -260 20 0 17 -7 20 -50 20 -38 0 -50 4 -50 15 0 10
-11 15 -35 15 -28 0 -35 4 -35 20 0 13 -7 20 -20 20 -11 0 -20 7 -20 15 0 8
-7 15 -15 15 -8 0 -15 9 -15 20 0 16 -7 20 -35 20 -24 0 -35 5 -35 15 0 8 -9
15 -20 15 -11 0 -20 7 -20 15 0 10 -10 15 -30 15 -23 0 -30 4 -30 20 0 19 -7
20 -125 20 -118 0 -125 -1 -125 -20 0 -16 -7 -20 -30 -20 -20 0 -30 -5 -30
-15 0 -8 -9 -15 -20 -15 -11 0 -20 -7 -20 -15 0 -8 -7 -15 -15 -15 -8 0 -15
-9 -15 -20 0 -13 -7 -20 -20 -20 -16 0 -20 7 -20 35 0 28 4 35 20 35 16 0 20
7 20 35 0 24 5 35 15 35 8 0 15 7 15 15 0 8 9 15 20 15 13 0 20 7 20 20 0 11
7 20 15 20 8 0 15 7 15 15 0 10 11 15 35 15 28 0 35 4 35 20 0 16 7 20 35 20
24 0 35 5 35 15 0 12 18 15 100 15 82 0 100 -3 100 -15z m-1130 -400 c0 -28
-4 -35 -20 -35 -17 0 -20 -7 -20 -50 0 -38 -4 -50 -15 -50 -10 0 -15 -11 -15
-35 0 -28 -4 -35 -20 -35 -11 0 -20 -7 -20 -15 0 -11 -12 -15 -50 -15 -43 0
-50 -3 -50 -20 0 -16 -7 -20 -35 -20 -24 0 -35 -5 -35 -15 0 -11 -12 -15 -50
-15 -43 0 -50 -3 -50 -20 0 -16 -7 -20 -35 -20 -24 0 -35 -5 -35 -15 0 -10
-11 -15 -35 -15 -28 0 -35 -4 -35 -20 0 -16 -7 -20 -35 -20 -24 0 -35 -5 -35
-15 0 -10 -11 -15 -35 -15 -28 0 -35 -4 -35 -20 0 -16 -7 -20 -35 -20 -24 0
-35 -5 -35 -15 0 -10 -11 -15 -35 -15 -24 0 -35 -5 -35 -15 0 -10 -10 -15 -30
-15 -23 0 -30 -4 -30 -20 0 -16 -7 -20 -35 -20 -24 0 -35 -5 -35 -15 0 -10
-11 -15 -35 -15 -28 0 -35 -4 -35 -20 0 -13 -7 -20 -20 -20 -11 0 -20 -7 -20
-15 0 -10 -11 -15 -35 -15 -28 0 -35 -4 -35 -20 0 -16 -7 -20 -30 -20 -20 0
-30 -5 -30 -15 0 -8 -9 -15 -20 -15 -13 0 -20 -7 -20 -20 0 -16 -7 -20 -35
-20 -24 0 -35 -5 -35 -15 0 -8 -7 -15 -15 -15 -8 0 -15 -7 -15 -15 0 -10 -11
-15 -35 -15 -28 0 -35 -4 -35 -20 0 -16 -7 -20 -35 -20 -24 0 -35 -5 -35 -15
0 -8 -7 -15 -15 -15 -8 0 -15 -9 -15 -20 0 -16 -7 -20 -35 -20 -24 0 -35 -5
-35 -15 0 -8 -9 -15 -20 -15 -13 0 -20 -7 -20 -20 0 -11 -7 -20 -15 -20 -8 0
-15 -7 -15 -15 0 -10 -11 -15 -35 -15 -28 0 -35 -4 -35 -20 0 -13 -7 -20 -20
-20 -11 0 -20 -7 -20 -15 0 -10 -11 -15 -35 -15 -24 0 -35 -5 -35 -15 0 -8 -7
-15 -15 -15 -8 0 -15 -9 -15 -20 0 -11 -7 -20 -15 -20 -8 0 -15 -7 -15 -15 0
-10 -11 -15 -35 -15 -28 0 -35 -4 -35 -20 0 -13 -7 -20 -20 -20 -11 0 -20 -7
-20 -15 0 -8 -7 -15 -15 -15 -8 0 -15 7 -15 15 0 8 7 15 15 15 8 0 15 9 15 20
0 13 7 20 20 20 11 0 20 7 20 15 0 8 7 15 15 15 8 0 15 9 15 20 0 13 7 20 20
20 11 0 20 7 20 15 0 8 7 15 15 15 8 0 15 7 15 15 0 8 7 15 15 15 8 0 15 9 15
20 0 13 7 20 20 20 11 0 20 7 20 15 0 8 7 15 15 15 8 0 15 9 15 20 0 13 7 20
20 20 11 0 20 7 20 15 0 8 7 15 15 15 8 0 15 9 15 20 0 16 7 20 35 20 24 0 35
5 35 15 0 8 9 15 20 15 13 0 20 7 20 20 0 11 7 20 15 20 8 0 15 7 15 15 0 8 9
15 20 15 11 0 20 7 20 15 0 10 10 15 30 15 23 0 30 4 30 20 0 13 7 20 20 20
11 0 20 7 20 15 0 8 7 15 15 15 8 0 15 9 15 20 0 16 7 20 35 20 24 0 35 5 35
15 0 8 9 15 20 15 13 0 20 7 20 20 0 11 7 20 15 20 8 0 15 7 15 15 0 10 11 15
35 15 28 0 35 4 35 20 0 11 7 20 15 20 8 0 15 7 15 15 0 10 11 15 35 15 24 0
35 5 35 15 0 8 9 15 20 15 13 0 20 7 20 20 0 16 7 20 35 20 24 0 35 5 35 15 0
10 11 15 35 15 28 0 35 4 35 20 0 11 7 20 15 20 8 0 15 7 15 15 0 10 11 15 35
15 28 0 35 4 35 20 0 16 7 20 35 20 24 0 35 5 35 15 0 10 11 15 35 15 28 0 35
4 35 20 0 16 7 20 35 20 24 0 35 5 35 15 0 10 10 15 30 15 20 0 30 5 30 15 0
10 11 15 35 15 28 0 35 4 35 20 0 16 7 20 35 20 24 0 35 5 35 15 0 10 11 15
35 15 28 0 35 4 35 20 0 16 7 20 35 20 24 0 35 5 35 15 0 10 11 15 35 15 28 0
35 4 35 20 0 17 7 20 50 20 38 0 50 4 50 15 0 8 9 15 20 15 16 0 20 -7 20 -35z
m-3900 -190 c0 -10 11 -15 35 -15 24 0 35 -5 35 -15 0 -10 11 -15 35 -15 28 0
35 -4 35 -20 0 -16 7 -20 35 -20 24 0 35 -5 35 -15 0 -8 7 -15 15 -15 8 0 15
-9 15 -20 0 -16 7 -20 35 -20 24 0 35 -5 35 -15 0 -10 11 -15 35 -15 28 0 35
-4 35 -20 0 -16 7 -20 35 -20 24 0 35 -5 35 -15 0 -10 11 -15 35 -15 28 0 35
-4 35 -20 0 -11 7 -20 15 -20 8 0 15 -7 15 -15 0 -10 11 -15 35 -15 24 0 35
-5 35 -15 0 -10 11 -15 35 -15 33 0 35 -2 35 -35 0 -24 -5 -35 -15 -35 -12 0
-15 -13 -15 -55 0 -48 -2 -55 -20 -55 -16 0 -20 -7 -20 -35 0 -33 -2 -35 -35
-35 -28 0 -35 4 -35 20 0 11 -7 20 -15 20 -8 0 -15 7 -15 15 0 10 -11 15 -35
15 -28 0 -35 4 -35 20 0 11 -7 20 -15 20 -8 0 -15 7 -15 15 0 10 -11 15 -35
15 -28 0 -35 4 -35 20 0 13 -7 20 -20 20 -11 0 -20 7 -20 15 0 10 -11 15 -35
15 -28 0 -35 4 -35 20 0 11 -7 20 -15 20 -8 0 -15 7 -15 15 0 10 -11 15 -35
15 -24 0 -35 5 -35 15 0 10 -11 15 -35 15 -28 0 -35 4 -35 20 0 16 -7 20 -35
20 -24 0 -35 5 -35 15 0 11 -12 15 -50 15 -43 0 -50 3 -50 20 0 19 -7 20 -120
20 -113 0 -120 -1 -120 -20 0 -16 -7 -20 -35 -20 -24 0 -35 -5 -35 -15 0 -10
-11 -15 -35 -15 -28 0 -35 -4 -35 -20 0 -11 -7 -20 -15 -20 -8 0 -15 -7 -15
-15 0 -8 -9 -15 -20 -15 -11 0 -20 -7 -20 -15 0 -10 -11 -15 -35 -15 -28 0
-35 -4 -35 -20 0 -11 -7 -20 -15 -20 -8 0 -15 -7 -15 -15 0 -8 -9 -15 -20 -15
-13 0 -20 -7 -20 -20 0 -11 -7 -20 -15 -20 -8 0 -15 -7 -15 -15 0 -10 -11 -15
-35 -15 -28 0 -35 -4 -35 -20 0 -11 -7 -20 -15 -20 -8 0 -15 -7 -15 -15 0 -8
-9 -15 -20 -15 -13 0 -20 -7 -20 -20 0 -11 -7 -20 -15 -20 -8 0 -15 -7 -15
-15 0 -8 -9 -15 -20 -15 -11 0 -20 -7 -20 -15 0 -8 -7 -15 -15 -15 -8 0 -15 7
-15 15 0 8 7 15 15 15 10 0 15 11 15 35 0 28 4 35 20 35 11 0 20 7 20 15 0 8
7 15 15 15 10 0 15 11 15 35 0 28 4 35 20 35 13 0 20 7 20 20 0 11 7 20 15 20
8 0 15 7 15 15 0 8 7 15 15 15 8 0 15 9 15 20 0 13 7 20 20 20 11 0 20 7 20
15 0 8 7 15 15 15 8 0 15 7 15 15 0 8 9 15 20 15 13 0 20 7 20 20 0 11 7 20
15 20 8 0 15 7 15 15 0 8 9 15 20 15 13 0 20 7 20 20 0 11 7 20 15 20 8 0 15
7 15 15 0 8 9 15 20 15 13 0 20 7 20 20 0 16 7 20 30 20 20 0 30 5 30 15 0 8
9 15 20 15 13 0 20 7 20 20 0 16 7 20 35 20 24 0 35 5 35 15 0 11 12 15 50 15
38 0 50 4 50 15 0 13 20 15 120 15 100 0 120 -2 120 -15z m-1000 -1325 c0 -63
2 -70 20 -70 18 0 20 -7 20 -70 0 -56 3 -70 15 -70 11 0 15 -12 15 -50 0 -43
3 -50 20 -50 16 0 20 -7 20 -35 0 -24 5 -35 15 -35 11 0 15 -12 15 -50 0 -43
3 -50 20 -50 16 0 20 -7 20 -35 0 -24 5 -35 15 -35 10 0 15 -11 15 -35 0 -24
5 -35 15 -35 11 0 15 -12 15 -50 0 -43 3 -50 20 -50 13 0 20 -7 20 -20 0 -11
7 -20 15 -20 8 0 15 9 15 20 0 16 7 20 35 20 24 0 35 5 35 15 0 8 9 15 20 15
13 0 20 7 20 20 0 16 7 20 35 20 24 0 35 5 35 15 0 8 7 15 15 15 8 0 15 7 15
15 0 10 11 15 35 15 28 0 35 4 35 20 0 11 7 20 15 20 8 0 15 7 15 15 0 10 11
15 35 15 l35 0 0 -50 c0 -38 -4 -50 -15 -50 -13 0 -15 -37 -15 -275 0 -238 2
-275 15 -275 13 0 15 -29 15 -205 0 -198 1 -205 20 -205 19 0 20 -7 20 -125 0
-104 2 -125 15 -125 12 0 15 -16 15 -85 0 -78 2 -85 20 -85 18 0 20 -7 20 -85
0 -69 3 -85 15 -85 11 0 15 -12 15 -50 0 -38 4 -50 15 -50 12 0 15 -14 15 -70
0 -63 2 -70 20 -70 18 0 20 -7 20 -55 0 -42 3 -55 15 -55 10 0 15 -10 15 -30
0 -23 4 -30 20 -30 16 0 20 -7 20 -35 0 -28 -4 -35 -20 -35 -11 0 -20 7 -20
15 0 8 -7 15 -15 15 -10 0 -15 11 -15 35 0 28 -4 35 -20 35 -16 0 -20 7 -20
35 0 24 -5 35 -15 35 -10 0 -15 11 -15 35 0 24 -5 35 -15 35 -10 0 -15 11 -15
35 0 28 -4 35 -20 35 -17 0 -20 7 -20 50 0 38 -4 50 -15 50 -10 0 -15 11 -15
35 0 28 -4 35 -20 35 -17 0 -20 7 -20 50 0 38 -4 50 -15 50 -12 0 -15 14 -15
70 0 63 -2 70 -20 70 -18 0 -20 7 -20 70 0 56 -3 70 -15 70 -12 0 -15 14 -15
70 0 63 -2 70 -20 70 -19 0 -20 7 -20 100 0 82 -3 100 -15 100 -12 0 -15 20
-15 120 0 100 -2 120 -15 120 -13 0 -15 24 -15 155 l0 155 -35 0 c-24 0 -35
-5 -35 -15 0 -8 -9 -15 -20 -15 -11 0 -20 -7 -20 -15 0 -8 -7 -15 -15 -15 -8
0 -15 -9 -15 -20 0 -13 -7 -20 -20 -20 -11 0 -20 -7 -20 -15 0 -10 -11 -15
-35 -15 -24 0 -35 5 -35 15 0 8 -7 15 -15 15 -10 0 -15 11 -15 35 0 24 -5 35
-15 35 -10 0 -15 11 -15 35 0 28 -4 35 -20 35 -16 0 -20 7 -20 35 0 24 -5 35
-15 35 -11 0 -15 12 -15 50 0 43 -3 50 -20 50 -18 0 -20 7 -20 70 0 56 -3 70
-15 70 -12 0 -15 14 -15 70 0 63 -2 70 -20 70 -19 0 -20 7 -20 120 0 100 -2
120 -15 120 -12 0 -15 20 -15 120 0 100 3 120 15 120 12 0 15 -14 15 -70z
m5480 20 c0 -18 7 -20 55 -20 42 0 55 -3 55 -15 0 -12 14 -15 65 -15 51 0 65
3 65 15 0 8 9 15 20 15 11 0 20 -7 20 -15 0 -10 11 -15 35 -15 28 0 35 -4 35
-20 0 -18 7 -20 70 -20 l70 0 0 -35 0 -35 50 0 c38 0 50 -4 50 -15 0 -8 7 -15
15 -15 10 0 15 -11 15 -35 0 -28 4 -35 20 -35 11 0 20 -7 20 -15 0 -8 7 -15
15 -15 12 0 15 -18 15 -105 0 -87 -3 -105 -15 -105 -8 0 -15 -9 -15 -20 0 -13
-7 -20 -20 -20 -11 0 -20 -7 -20 -15 0 -11 -12 -15 -50 -15 l-50 0 0 50 c0 38
4 50 15 50 12 0 15 13 15 55 0 42 -3 55 -15 55 -8 0 -15 -9 -15 -20 0 -17 -7
-20 -50 -20 l-50 0 0 70 c0 63 -2 70 -20 70 -11 0 -20 -7 -20 -15 0 -8 -7 -15
-15 -15 -8 0 -15 -9 -15 -20 0 -13 -7 -20 -20 -20 -13 0 -20 7 -20 20 0 11 -7
20 -15 20 -10 0 -15 10 -15 30 0 23 -4 30 -20 30 -11 0 -20 -7 -20 -15 0 -8
-7 -15 -15 -15 -8 0 -15 -7 -15 -15 0 -10 -11 -15 -35 -15 -32 0 -35 2 -35 30
0 28 -3 30 -35 30 -24 0 -35 -5 -35 -15 0 -10 -11 -15 -35 -15 -24 0 -35 5
-35 15 0 8 -7 15 -15 15 -8 0 -15 9 -15 20 0 17 -7 20 -50 20 -43 0 -50 -3
-50 -20 0 -13 -7 -20 -20 -20 -11 0 -20 -7 -20 -15 0 -10 -11 -15 -35 -15
l-35 0 0 70 c0 63 2 70 20 70 16 0 20 7 20 35 0 24 5 35 15 35 8 0 15 7 15 15
0 8 9 15 20 15 13 0 20 7 20 20 0 18 7 20 65 20 58 0 65 -2 65 -20z m-440
-125 c0 -28 -4 -35 -20 -35 -17 0 -20 -7 -20 -50 0 -38 -4 -50 -15 -50 -8 0
-15 -7 -15 -15 0 -8 7 -15 15 -15 8 0 15 7 15 15 0 8 9 15 20 15 11 0 20 7 20
15 0 10 10 15 30 15 23 0 30 4 30 20 0 13 7 20 20 20 17 0 20 -7 20 -50 0 -43
-3 -50 -20 -50 -18 0 -20 -7 -20 -55 0 -42 -3 -55 -15 -55 -10 0 -15 -11 -15
-35 0 -24 -5 -35 -15 -35 -10 0 -15 -11 -15 -35 0 -28 -4 -35 -20 -35 -17 0
-20 -7 -20 -50 0 -38 -4 -50 -15 -50 -10 0 -15 -11 -15 -35 0 -28 -4 -35 -20
-35 -18 0 -20 -7 -20 -70 0 -56 -3 -70 -15 -70 -12 0 -15 -14 -15 -65 0 -58
-2 -65 -20 -65 -18 0 -20 -7 -20 -70 0 -56 -3 -70 -15 -70 -11 0 -15 12 -15
50 0 43 -3 50 -20 50 -19 0 -20 7 -20 120 0 100 -2 120 -15 120 -13 0 -15 36
-15 260 0 224 2 260 15 260 8 0 15 7 15 15 0 8 9 15 20 15 13 0 20 7 20 20 0
11 7 20 15 20 8 0 15 7 15 15 0 8 9 15 20 15 13 0 20 7 20 20 0 11 7 20 15 20
8 0 15 7 15 15 0 12 13 15 55 15 l55 0 0 -35z m1130 -565 c0 -100 -2 -120 -15
-120 -12 0 -15 -14 -15 -70 0 -63 -2 -70 -20 -70 -16 0 -20 -7 -20 -35 0 -24
-5 -35 -15 -35 -11 0 -15 -12 -15 -50 0 -43 -3 -50 -20 -50 -16 0 -20 -7 -20
-35 0 -24 -5 -35 -15 -35 -10 0 -15 -11 -15 -35 0 -24 -5 -35 -15 -35 -8 0
-15 -7 -15 -15 0 -8 -9 -15 -20 -15 -16 0 -20 -7 -20 -35 0 -24 -5 -35 -15
-35 -8 0 -15 -9 -15 -20 0 -13 -7 -20 -20 -20 -16 0 -20 -7 -20 -35 0 -24 -5
-35 -15 -35 -8 0 -15 -7 -15 -15 0 -8 -9 -15 -20 -15 -13 0 -20 -7 -20 -20 0
-11 -7 -20 -15 -20 -10 0 -15 11 -15 35 0 24 5 35 15 35 12 0 15 14 15 70 0
63 2 70 20 70 18 0 20 7 20 70 0 56 3 70 15 70 12 0 15 16 15 85 0 78 2 85 20
85 18 0 20 7 20 85 0 69 3 85 15 85 10 0 15 11 15 35 0 33 2 35 35 35 24 0 35
-5 35 -15 0 -8 7 -15 15 -15 11 0 15 12 15 50 0 43 3 50 20 50 16 0 20 7 20
35 0 24 5 35 15 35 8 0 15 7 15 15 0 8 9 15 20 15 13 0 20 7 20 20 0 11 7 20
15 20 13 0 15 -20 15 -120z m-6550 -485 c0 -8 -7 -15 -15 -15 -8 0 -15 -9 -15
-20 0 -13 -7 -20 -20 -20 -11 0 -20 -7 -20 -15 0 -8 -7 -15 -15 -15 -8 0 -15
-7 -15 -15 0 -8 -7 -15 -15 -15 -8 0 -15 -9 -15 -20 0 -13 -7 -20 -20 -20 -16
0 -20 -7 -20 -35 0 -24 -5 -35 -15 -35 -8 0 -15 -7 -15 -15 0 -8 -9 -15 -20
-15 -13 0 -20 -7 -20 -20 0 -11 -7 -20 -15 -20 -8 0 -15 -7 -15 -15 0 -8 -9
-15 -20 -15 -13 0 -20 -7 -20 -20 0 -16 -7 -20 -35 -20 -24 0 -35 -5 -35 -15
0 -8 -7 -15 -15 -15 -8 0 -15 -7 -15 -15 0 -8 -7 -15 -15 -15 -8 0 -15 -9 -15
-20 0 -13 -7 -20 -20 -20 -11 0 -20 -7 -20 -15 0 -8 -7 -15 -15 -15 -8 0 -15
-9 -15 -20 0 -16 -7 -20 -35 -20 -24 0 -35 -5 -35 -15 0 -8 -9 -15 -20 -15
-13 0 -20 -7 -20 -20 0 -11 -7 -20 -15 -20 -8 0 -15 -7 -15 -15 0 -8 -9 -15
-20 -15 -13 0 -20 -7 -20 -20 0 -11 -7 -20 -15 -20 -8 0 -15 -7 -15 -15 0 -8
-7 -15 -15 -15 -8 0 -15 -7 -15 -15 0 -8 -9 -15 -20 -15 -13 0 -20 -7 -20 -20
0 -11 -7 -20 -15 -20 -8 0 -15 -7 -15 -15 0 -8 -9 -15 -20 -15 -13 0 -20 -7
-20 -20 0 -11 -7 -20 -15 -20 -8 0 -15 -7 -15 -15 0 -8 -9 -15 -20 -15 -13 0
-20 -7 -20 -20 0 -11 -7 -20 -15 -20 -8 0 -15 -7 -15 -15 0 -8 -9 -15 -20 -15
-13 0 -20 -7 -20 -20 0 -11 -7 -20 -15 -20 -8 0 -15 -7 -15 -15 0 -8 -7 -15
-15 -15 -8 0 -15 -9 -15 -20 0 -13 -7 -20 -20 -20 -11 0 -20 -7 -20 -15 0 -8
-7 -15 -15 -15 -8 0 -15 -7 -15 -15 0 -8 -9 -15 -20 -15 -16 0 -20 -7 -20 -35
0 -24 -5 -35 -15 -35 -8 0 -15 -9 -15 -20 0 -13 -7 -20 -20 -20 -11 0 -20 -7
-20 -15 0 -8 -7 -15 -15 -15 -8 0 -15 -9 -15 -20 0 -13 -7 -20 -20 -20 -11 0
-20 -7 -20 -15 0 -8 -7 -15 -15 -15 -8 0 -15 -9 -15 -20 0 -11 -7 -20 -15 -20
-10 0 -15 -10 -15 -30 0 -23 -4 -30 -20 -30 -13 0 -20 -7 -20 -20 0 -11 -7
-20 -15 -20 -8 0 -15 -7 -15 -15 0 -8 -9 -15 -20 -15 -13 0 -20 -7 -20 -20 0
-11 -7 -20 -15 -20 -8 0 -15 -7 -15 -15 0 -8 -9 -15 -20 -15 -16 0 -20 -7 -20
-35 0 -24 -5 -35 -15 -35 -8 0 -15 -9 -15 -20 0 -13 -7 -20 -20 -20 -11 0 -20
-7 -20 -15 0 -8 -7 -15 -15 -15 -10 0 -15 -11 -15 -35 0 -28 -4 -35 -20 -35
-11 0 -20 -7 -20 -15 0 -8 -7 -15 -15 -15 -8 0 -15 -9 -15 -20 0 -11 -7 -20
-15 -20 -10 0 -15 -11 -15 -35 0 -28 -4 -35 -20 -35 -11 0 -20 -7 -20 -15 0
-8 -7 -15 -15 -15 -8 0 -15 -9 -15 -20 0 -13 -7 -20 -20 -20 -16 0 -20 -7 -20
-30 0 -20 -5 -30 -15 -30 -8 0 -15 -9 -15 -20 0 -13 -7 -20 -20 -20 -16 0 -20
-7 -20 -35 0 -24 -5 -35 -15 -35 -8 0 -15 -7 -15 -15 0 -8 -9 -15 -20 -15 -16
0 -20 -7 -20 -35 0 -24 -5 -35 -15 -35 -8 0 -15 -9 -15 -20 0 -11 -7 -20 -15
-20 -10 0 -15 -10 -15 -30 0 -23 -4 -30 -20 -30 -13 0 -20 -7 -20 -20 0 -11
-7 -20 -15 -20 -10 0 -15 -11 -15 -35 0 -28 -4 -35 -20 -35 -11 0 -20 -7 -20
-15 0 -8 -7 -15 -15 -15 -10 0 -15 -11 -15 -35 0 -28 -4 -35 -20 -35 -13 0
-20 -7 -20 -20 0 -11 -7 -20 -15 -20 -10 0 -15 -11 -15 -35 0 -28 -4 -35 -20
-35 -16 0 -20 -7 -20 -30 0 -20 -5 -30 -15 -30 -8 0 -15 -9 -15 -20 0 -11 -7
-20 -15 -20 -10 0 -15 -11 -15 -35 0 -28 -4 -35 -20 -35 -16 0 -20 -7 -20 -35
0 -24 -5 -35 -15 -35 -8 0 -15 -7 -15 -15 0 -8 -9 -15 -20 -15 -16 0 -20 -7
-20 -35 0 -24 -5 -35 -15 -35 -10 0 -15 -11 -15 -35 0 -28 -4 -35 -20 -35 -16
0 -20 -7 -20 -35 0 -24 -5 -35 -15 -35 -10 0 -15 -11 -15 -35 0 -28 -4 -35
-20 -35 -11 0 -20 -7 -20 -15 0 -8 -7 -15 -15 -15 -10 0 -15 -11 -15 -35 0
-24 5 -35 15 -35 8 0 15 7 15 15 0 13 28 15 190 15 183 0 190 1 190 20 0 13 7
20 20 20 13 0 20 -7 20 -20 0 -13 -7 -20 -20 -20 -11 0 -20 -7 -20 -15 0 -8
-7 -15 -15 -15 -8 0 -15 -7 -15 -15 0 -8 -9 -15 -20 -15 -13 0 -20 -7 -20 -20
0 -11 -7 -20 -15 -20 -8 0 -15 -7 -15 -15 0 -8 -7 -15 -15 -15 -8 0 -15 -9
-15 -20 0 -16 -7 -20 -35 -20 -24 0 -35 -5 -35 -15 0 -8 -9 -15 -20 -15 -13 0
-20 -7 -20 -20 0 -11 -7 -20 -15 -20 -8 0 -15 -7 -15 -15 0 -8 -9 -15 -20 -15
-13 0 -20 -7 -20 -20 0 -11 -7 -20 -15 -20 -8 0 -15 -7 -15 -15 0 -8 -9 -15
-20 -15 -11 0 -20 -7 -20 -15 0 -8 -7 -15 -15 -15 -8 0 -15 -9 -15 -20 0 -11
-7 -20 -15 -20 -8 0 -15 -7 -15 -15 0 -10 -11 -15 -35 -15 -28 0 -35 -4 -35
-20 0 -13 -7 -20 -20 -20 -11 0 -20 -7 -20 -15 0 -8 -7 -15 -15 -15 -8 0 -15
-9 -15 -20 0 -13 -7 -20 -20 -20 -11 0 -20 -7 -20 -15 0 -8 -7 -15 -15 -15 -8
0 -15 -9 -15 -20 0 -13 -7 -20 -20 -20 -11 0 -20 -7 -20 -15 0 -8 -7 -15 -15
-15 -8 0 -15 -7 -15 -15 0 -8 -7 -15 -15 -15 -8 0 -15 -9 -15 -20 0 -13 -7
-20 -20 -20 -11 0 -20 -7 -20 -15 0 -8 -7 -15 -15 -15 -8 0 -15 -9 -15 -20 0
-13 -7 -20 -20 -20 -11 0 -20 -7 -20 -15 0 -8 -7 -15 -15 -15 -8 0 -15 -9 -15
-20 0 -13 -7 -20 -20 -20 -11 0 -20 -7 -20 -15 0 -8 -7 -15 -15 -15 -8 0 -15
-9 -15 -20 0 -13 -7 -20 -20 -20 -11 0 -20 -7 -20 -15 0 -8 -7 -15 -15 -15 -8
0 -15 -7 -15 -15 0 -8 -7 -15 -15 -15 -8 0 -15 -9 -15 -20 0 -13 -7 -20 -20
-20 -11 0 -20 -7 -20 -15 0 -8 -7 -15 -15 -15 -8 0 -15 -9 -15 -20 0 -16 -7
-20 -35 -20 l-35 0 0 1690 c0 1496 2 1690 15 1690 8 0 15 7 15 15 0 12 18 15
105 15 98 0 105 1 105 20 0 19 7 20 135 20 113 0 135 2 135 15 0 13 24 15 155
15 148 0 155 1 155 20 0 19 7 20 140 20 118 0 140 2 140 15 0 13 22 15 140 15
133 0 140 1 140 20 0 19 7 20 135 20 113 0 135 2 135 15 0 13 22 15 140 15
133 0 140 1 140 20 0 18 7 20 85 20 69 0 85 3 85 15 0 8 7 15 15 15 8 0 15 7
15 15 0 10 11 15 35 15 28 0 35 4 35 20 0 13 7 20 20 20 11 0 20 7 20 15 0 10
11 15 35 15 28 0 35 4 35 20 0 16 7 20 35 20 24 0 35 5 35 15 0 8 7 15 15 15
8 0 15 9 15 20 0 16 7 20 35 20 24 0 35 5 35 15 0 10 11 15 35 15 28 0 35 4
35 20 0 11 7 20 15 20 8 0 15 7 15 15 0 10 11 15 35 15 24 0 35 5 35 15 0 10
11 15 35 15 28 0 35 4 35 20 0 11 7 20 15 20 8 0 15 7 15 15 0 10 11 15 35 15
28 0 35 4 35 20 0 16 7 20 35 20 24 0 35 5 35 15 0 10 11 15 35 15 28 0 35 4
35 20 0 16 7 20 35 20 24 0 35 5 35 15 0 10 11 15 35 15 28 0 35 4 35 20 0 16
7 20 35 20 24 0 35 5 35 15 0 10 11 15 35 15 24 0 35 5 35 15 0 10 11 15 35
15 28 0 35 4 35 20 0 16 7 20 30 20 20 0 30 5 30 15 0 10 11 15 35 15 24 0 35
-5 35 -15z m310 -330 c0 -28 4 -35 20 -35 17 0 20 -7 20 -50 0 -38 4 -50 15
-50 10 0 15 -11 15 -35 0 -24 -5 -35 -15 -35 -8 0 -15 -7 -15 -15 0 -8 -9 -15
-20 -15 -13 0 -20 -7 -20 -20 0 -11 -7 -20 -15 -20 -10 0 -15 -11 -15 -35 0
-24 -5 -35 -15 -35 -8 0 -15 -7 -15 -15 0 -8 -9 -15 -20 -15 -11 0 -20 -7 -20
-15 0 -8 -7 -15 -15 -15 -8 0 -15 -9 -15 -20 0 -13 -7 -20 -20 -20 -11 0 -20
-7 -20 -15 0 -8 -7 -15 -15 -15 -8 0 -15 -9 -15 -20 0 -13 -7 -20 -20 -20 -16
0 -20 -7 -20 -35 0 -24 -5 -35 -15 -35 -8 0 -15 -7 -15 -15 0 -8 -9 -15 -20
-15 -13 0 -20 -7 -20 -20 0 -11 -7 -20 -15 -20 -8 0 -15 -7 -15 -15 0 -8 -9
-15 -20 -15 -16 0 -20 -7 -20 -35 0 -24 -5 -35 -15 -35 -8 0 -15 -7 -15 -15 0
-8 -7 -15 -15 -15 -8 0 -15 -9 -15 -20 0 -13 -7 -20 -20 -20 -16 0 -20 -7 -20
-35 0 -24 -5 -35 -15 -35 -8 0 -15 -7 -15 -15 0 -8 -9 -15 -20 -15 -16 0 -20
-7 -20 -35 0 -24 -5 -35 -15 -35 -8 0 -15 -9 -15 -20 0 -13 -7 -20 -20 -20
-16 0 -20 -7 -20 -30 0 -20 -5 -30 -15 -30 -10 0 -15 -11 -15 -35 0 -28 -4
-35 -20 -35 -16 0 -20 -7 -20 -35 0 -24 -5 -35 -15 -35 -8 0 -15 -9 -15 -20 0
-11 -7 -20 -15 -20 -11 0 -15 -12 -15 -50 l0 -50 120 0 c100 0 120 -2 120 -15
0 -12 18 -15 100 -15 93 0 100 -1 100 -20 0 -11 -7 -20 -15 -20 -8 0 -15 -7
-15 -15 0 -8 -9 -15 -20 -15 -13 0 -20 -7 -20 -20 0 -16 -7 -20 -30 -20 -20 0
-30 -5 -30 -15 0 -8 -9 -15 -20 -15 -13 0 -20 -7 -20 -20 0 -16 -7 -20 -35
-20 -24 0 -35 -5 -35 -15 0 -8 -7 -15 -15 -15 -8 0 -15 -9 -15 -20 0 -16 -7
-20 -35 -20 -24 0 -35 -5 -35 -15 0 -8 -9 -15 -20 -15 -11 0 -20 -7 -20 -15 0
-8 -7 -15 -15 -15 -8 0 -15 -9 -15 -20 0 -16 -7 -20 -35 -20 -24 0 -35 -5 -35
-15 0 -8 -7 -15 -15 -15 -8 0 -15 -9 -15 -20 0 -13 -7 -20 -20 -20 -11 0 -20
-7 -20 -15 0 -8 -7 -15 -15 -15 -8 0 -15 -9 -15 -20 0 -13 -7 -20 -20 -20 -11
0 -20 -7 -20 -15 0 -8 -7 -15 -15 -15 -8 0 -15 -9 -15 -20 0 -13 -7 -20 -20
-20 -11 0 -20 -7 -20 -15 0 -8 -7 -15 -15 -15 -8 0 -15 -7 -15 -15 0 -8 -7
-15 -15 -15 -8 0 -15 -9 -15 -20 0 -13 -7 -20 -20 -20 -11 0 -20 -7 -20 -15 0
-8 -7 -15 -15 -15 -8 0 -15 -9 -15 -20 0 -13 -7 -20 -20 -20 -11 0 -20 -7 -20
-15 0 -8 -7 -15 -15 -15 -8 0 -15 -9 -15 -20 0 -13 -7 -20 -20 -20 -11 0 -20
-7 -20 -15 0 -8 -7 -15 -15 -15 -8 0 -15 -9 -15 -20 0 -13 -7 -20 -20 -20 -11
0 -20 -7 -20 -15 0 -8 -7 -15 -15 -15 -8 0 -15 -9 -15 -20 0 -11 -7 -20 -15
-20 -10 0 -15 -10 -15 -30 0 -23 -4 -30 -20 -30 -13 0 -20 -7 -20 -20 0 -11
-7 -20 -15 -20 -8 0 -15 -7 -15 -15 0 -8 -9 -15 -20 -15 -16 0 -20 -7 -20 -35
0 -24 -5 -35 -15 -35 -8 0 -15 -9 -15 -20 0 -13 -7 -20 -20 -20 -16 0 -20 -7
-20 -35 0 -24 -5 -35 -15 -35 -8 0 -15 -7 -15 -15 0 -8 -9 -15 -20 -15 -16 0
-20 -7 -20 -35 0 -24 -5 -35 -15 -35 -10 0 -15 -11 -15 -35 0 -24 -5 -35 -15
-35 -8 0 -15 -7 -15 -15 0 -8 -9 -15 -20 -15 -16 0 -20 -7 -20 -35 0 -24 -5
-35 -15 -35 -10 0 -15 -11 -15 -35 0 -28 -4 -35 -20 -35 -16 0 -20 -7 -20 -35
0 -24 -5 -35 -15 -35 -11 0 -15 -12 -15 -50 0 -43 -3 -50 -20 -50 -16 0 -20
-7 -20 -35 0 -24 -5 -35 -15 -35 -11 0 -15 -12 -15 -50 0 -43 -3 -50 -20 -50
-18 0 -20 -7 -20 -55 0 -42 -3 -55 -15 -55 -12 0 -15 -14 -15 -70 0 -56 3 -70
15 -70 8 0 15 9 15 20 0 16 7 20 35 20 24 0 35 5 35 15 0 10 11 15 35 15 28 0
35 4 35 20 0 16 7 20 35 20 24 0 35 5 35 15 0 11 12 15 50 15 43 0 50 3 50 20
0 16 7 20 35 20 24 0 35 5 35 15 0 8 9 15 20 15 16 0 20 -7 20 -35 0 -28 -4
-35 -20 -35 -16 0 -20 -7 -20 -35 0 -24 -5 -35 -15 -35 -11 0 -15 -12 -15 -50
0 -43 -3 -50 -20 -50 -16 0 -20 -7 -20 -35 0 -24 -5 -35 -15 -35 -10 0 -15
-11 -15 -35 0 -24 -5 -35 -15 -35 -11 0 -15 -12 -15 -50 0 -43 -3 -50 -20 -50
-16 0 -20 -7 -20 -35 0 -24 -5 -35 -15 -35 -10 0 -15 -11 -15 -35 0 -28 -4
-35 -20 -35 -17 0 -20 -7 -20 -50 0 -38 -4 -50 -15 -50 -12 0 -15 -13 -15 -55
0 -48 -2 -55 -20 -55 -16 0 -20 -7 -20 -35 0 -24 -5 -35 -15 -35 -11 0 -15
-12 -15 -50 0 -43 -3 -50 -20 -50 -17 0 -20 -7 -20 -50 0 -38 -4 -50 -15 -50
-12 0 -15 -13 -15 -55 0 -48 -2 -55 -20 -55 -17 0 -20 -7 -20 -50 0 -38 -4
-50 -15 -50 -11 0 -15 -12 -15 -50 0 -38 -4 -50 -15 -50 -12 0 -15 -13 -15
-55 0 -48 -2 -55 -20 -55 -18 0 -20 -7 -20 -65 0 -51 -3 -65 -15 -65 -12 0
-15 -14 -15 -70 0 -63 -2 -70 -20 -70 -18 0 -20 -7 -20 -70 0 -56 -3 -70 -15
-70 -12 0 -15 -16 -15 -85 0 -78 -2 -85 -20 -85 -19 0 -20 -7 -20 -105 0 -87
-3 -105 -15 -105 -12 0 -15 18 -15 105 0 98 -1 105 -20 105 -19 0 -20 7 -20
205 0 198 1 205 20 205 19 0 20 7 20 155 0 131 2 155 15 155 12 0 15 16 15 85
0 78 2 85 20 85 18 0 20 7 20 70 0 56 3 70 15 70 12 0 15 13 15 55 0 48 2 55
20 55 18 0 20 7 20 65 0 51 3 65 15 65 10 0 15 11 15 35 0 28 4 35 20 35 18 0
20 7 20 55 0 42 3 55 15 55 11 0 15 12 15 50 0 38 4 50 15 50 10 0 15 11 15
35 0 28 4 35 20 35 11 0 20 7 20 15 0 8 -9 15 -20 15 -11 0 -20 -7 -20 -15 0
-8 -7 -15 -15 -15 -8 0 -15 -9 -15 -20 0 -11 -7 -20 -15 -20 -8 0 -15 -7 -15
-15 0 -8 -9 -15 -20 -15 -11 0 -20 -7 -20 -15 0 -8 -7 -15 -15 -15 -8 0 -15
-9 -15 -20 0 -16 -7 -20 -35 -20 -24 0 -35 -5 -35 -15 0 -8 -9 -15 -20 -15
-13 0 -20 -7 -20 -20 0 -11 -7 -20 -15 -20 -8 0 -15 -7 -15 -15 0 -8 -9 -15
-20 -15 -13 0 -20 -7 -20 -20 0 -11 -7 -20 -15 -20 -8 0 -15 -7 -15 -15 0 -8
-7 -15 -15 -15 -8 0 -15 -9 -15 -20 0 -13 -7 -20 -20 -20 -11 0 -20 -7 -20
-15 0 -8 -7 -15 -15 -15 -8 0 -15 -9 -15 -20 0 -13 -7 -20 -20 -20 -19 0 -20
7 -20 160 0 153 1 160 20 160 18 0 20 7 20 85 0 69 3 85 15 85 12 0 15 16 15
85 0 78 2 85 20 85 17 0 20 7 20 50 0 38 4 50 15 50 12 0 15 13 15 55 0 42 3
55 15 55 11 0 15 12 15 50 0 43 3 50 20 50 17 0 20 7 20 50 0 38 4 50 15 50
10 0 15 11 15 35 0 28 4 35 20 35 18 0 20 7 20 55 0 42 3 55 15 55 10 0 15 10
15 30 0 23 4 30 20 30 16 0 20 7 20 35 0 24 5 35 15 35 10 0 15 11 15 35 0 28
4 35 20 35 16 0 20 7 20 35 0 24 5 35 15 35 8 0 15 9 15 20 0 11 7 20 15 20
10 0 15 10 15 30 0 23 4 30 20 30 13 0 20 7 20 20 0 11 7 20 15 20 10 0 15 11
15 35 0 28 4 35 20 35 11 0 20 7 20 15 0 8 7 15 15 15 10 0 15 11 15 35 0 28
4 35 20 35 13 0 20 7 20 20 0 11 7 20 15 20 8 0 15 7 15 15 0 8 9 15 20 15 16
0 20 7 20 35 0 24 5 35 15 35 8 0 15 7 15 15 0 8 9 15 20 15 13 0 20 7 20 20
0 11 7 20 15 20 8 0 15 7 15 15 0 8 7 15 15 15 8 0 15 9 15 20 0 13 7 20 20
20 11 0 20 7 20 15 0 8 7 15 15 15 8 0 15 9 15 20 0 13 7 20 20 20 11 0 20 7
20 15 0 8 7 15 15 15 8 0 15 9 15 20 0 13 7 20 20 20 11 0 20 7 20 15 0 8 7
15 15 15 8 0 15 7 15 15 0 8 9 15 20 15 13 0 20 7 20 20 0 11 7 20 15 20 8 0
15 7 15 15 0 8 7 15 15 15 8 0 15 9 15 20 0 16 7 20 35 20 24 0 35 5 35 15 0
8 9 15 20 15 13 0 20 7 20 20 0 11 7 20 15 20 8 0 15 7 15 15 0 8 9 15 20 15
13 0 20 7 20 20 0 16 7 20 35 20 24 0 35 5 35 15 0 8 7 15 15 15 8 0 15 7 15
15 0 10 11 15 35 15 28 0 35 4 35 20 0 11 7 20 15 20 8 0 15 7 15 15 0 8 9 15
20 15 13 0 20 7 20 20 0 13 -7 20 -20 20 -13 0 -20 -7 -20 -20 0 -19 -7 -20
-100 -20 -82 0 -100 -3 -100 -15 0 -12 -18 -15 -105 -15 -87 0 -105 3 -105 15
0 8 7 15 15 15 8 0 15 9 15 20 0 13 7 20 20 20 16 0 20 7 20 35 0 24 5 35 15
35 8 0 15 7 15 15 0 8 9 15 20 15 16 0 20 7 20 35 0 24 5 35 15 35 8 0 15 7
15 15 0 8 9 15 20 15 16 0 20 7 20 35 0 24 5 35 15 35 8 0 15 9 15 20 0 13 7
20 20 20 16 0 20 7 20 35 0 24 5 35 15 35 8 0 15 7 15 15 0 8 7 15 15 15 10 0
15 11 15 35 0 28 4 35 20 35 11 0 20 7 20 15 0 8 7 15 15 15 8 0 15 9 15 20 0
13 7 20 20 20 16 0 20 7 20 35 0 24 5 35 15 35 8 0 15 7 15 15 0 8 9 15 20 15
13 0 20 7 20 20 0 11 7 20 15 20 10 0 15 11 15 35 0 28 4 35 20 35 11 0 20 7
20 15 0 8 7 15 15 15 8 0 15 7 15 15 0 8 7 15 15 15 10 0 15 11 15 35 0 28 4
35 20 35 13 0 20 7 20 20 0 11 7 20 15 20 8 0 15 7 15 15 0 8 9 15 20 15 13 0
20 7 20 20 0 11 7 20 15 20 10 0 15 11 15 35 0 28 4 35 20 35 11 0 20 7 20 15
0 8 7 15 15 15 8 0 15 9 15 20 0 13 7 20 20 20 11 0 20 7 20 15 0 8 7 15 15
15 8 0 15 7 15 15 0 8 7 15 15 15 10 0 15 11 15 35 0 28 4 35 20 35 13 0 20 7
20 20 0 11 7 20 15 20 8 0 15 7 15 15 0 8 9 15 20 15 13 0 20 7 20 20 0 11 7
20 15 20 8 0 15 7 15 15 0 8 9 15 20 15 13 0 20 7 20 20 0 11 7 20 15 20 8 0
15 7 15 15 0 8 9 15 20 15 11 0 20 7 20 15 0 8 7 15 15 15 8 0 15 9 15 20 0
16 7 20 35 20 24 0 35 5 35 15 0 8 7 15 15 15 10 0 15 -11 15 -35z m6860 -600
c0 -13 22 -15 140 -15 133 0 140 -1 140 -20 0 -19 7 -20 120 -20 l120 0 0
-1600 c0 -1416 2 -1600 15 -1600 8 0 15 -9 15 -20 0 -13 7 -20 20 -20 11 0 20
-7 20 -15 0 -8 7 -15 15 -15 8 0 15 -7 15 -15 0 -8 9 -15 20 -15 13 0 20 -7
20 -20 0 -11 7 -20 15 -20 8 0 15 -7 15 -15 0 -8 9 -15 20 -15 13 0 20 -7 20
-20 0 -11 7 -20 15 -20 8 0 15 -7 15 -15 0 -8 9 -15 20 -15 13 0 20 -7 20 -20
0 -11 7 -20 15 -20 8 0 15 -7 15 -15 0 -8 7 -15 15 -15 10 0 15 -11 15 -35 0
-28 4 -35 20 -35 13 0 20 -7 20 -20 0 -11 7 -20 15 -20 10 0 15 -10 15 -30 0
-23 4 -30 20 -30 13 0 20 -7 20 -20 0 -11 7 -20 15 -20 8 0 15 -7 15 -15 0 -8
9 -15 20 -15 16 0 20 -7 20 -35 0 -24 5 -35 15 -35 10 0 15 -11 15 -35 0 -28
4 -35 20 -35 13 0 20 -7 20 -20 0 -11 7 -20 15 -20 10 0 15 -10 15 -30 0 -20
5 -30 15 -30 10 0 15 -11 15 -35 0 -28 4 -35 20 -35 16 0 20 -7 20 -35 0 -24
5 -35 15 -35 10 0 15 -11 15 -35 0 -24 -5 -35 -15 -35 -8 0 -15 7 -15 15 0 8
-9 15 -20 15 -13 0 -20 7 -20 20 0 11 -7 20 -15 20 -8 0 -15 7 -15 15 0 8 -7
15 -15 15 -8 0 -15 9 -15 20 0 13 -7 20 -20 20 -11 0 -20 7 -20 15 0 8 -7 15
-15 15 -8 0 -15 9 -15 20 0 13 -7 20 -20 20 -11 0 -20 7 -20 15 0 8 -7 15 -15
15 -8 0 -15 7 -15 15 0 8 -9 15 -20 15 -13 0 -20 7 -20 20 0 16 -7 20 -35 20
-24 0 -35 5 -35 15 0 8 -7 15 -15 15 -8 0 -15 9 -15 20 0 11 -7 20 -15 20 -8
0 -15 7 -15 15 0 8 -9 15 -20 15 -13 0 -20 7 -20 20 0 11 -7 20 -15 20 -8 0
-15 7 -15 15 0 8 -9 15 -20 15 -13 0 -20 7 -20 20 0 11 -7 20 -15 20 -8 0 -15
7 -15 15 0 10 -11 15 -35 15 -24 0 -35 5 -35 15 0 8 -9 15 -20 15 -13 0 -20 7
-20 20 0 11 -7 20 -15 20 -8 0 -15 7 -15 15 0 8 -7 15 -15 15 -8 0 -15 9 -15
20 0 13 -7 20 -20 20 -11 0 -20 7 -20 15 0 8 -7 15 -15 15 -8 0 -15 9 -15 20
0 16 -7 20 -35 20 -24 0 -35 5 -35 15 0 8 -9 15 -20 15 -13 0 -20 7 -20 20 0
11 -7 20 -15 20 -8 0 -15 7 -15 15 0 8 -9 15 -20 15 -13 0 -20 7 -20 20 0 11
-7 20 -15 20 -8 0 -15 7 -15 15 0 8 -7 15 -15 15 -8 0 -15 7 -15 15 0 8 -9 15
-20 15 -13 0 -20 7 -20 20 0 11 -7 20 -15 20 -8 0 -15 7 -15 15 0 8 -9 15 -20
15 -13 0 -20 7 -20 20 0 11 -7 20 -15 20 -10 0 -15 11 -15 35 0 28 -4 35 -20
35 -11 0 -20 7 -20 15 0 8 -7 15 -15 15 -10 0 -15 11 -15 35 0 28 -4 35 -20
35 -11 0 -20 7 -20 15 0 8 -7 15 -15 15 -10 0 -15 11 -15 35 0 28 -4 35 -20
35 -16 0 -20 7 -20 35 0 24 -5 35 -15 35 -10 0 -15 11 -15 35 0 24 -5 35 -15
35 -11 0 -15 12 -15 50 0 43 -3 50 -20 50 -16 0 -20 7 -20 35 0 24 -5 35 -15
35 -12 0 -15 13 -15 55 0 48 -2 55 -20 55 -18 0 -20 7 -20 65 0 51 -3 65 -15
65 -12 0 -15 13 -15 55 0 48 -2 55 -20 55 -18 0 -20 7 -20 85 0 69 -3 85 -15
85 -12 0 -15 18 -15 105 0 98 -1 105 -20 105 -19 0 -20 7 -20 155 0 131 -2
155 -15 155 -13 0 -15 64 -15 515 0 451 2 515 15 515 13 0 15 24 15 155 0 148
1 155 20 155 17 0 20 7 20 50 l0 50 35 0 c24 0 35 -5 35 -15 0 -11 12 -15 50
-15 38 0 50 -4 50 -15 0 -10 11 -15 35 -15 28 0 35 -4 35 -20 0 -17 7 -20 50
-20 l50 0 0 120 0 120 35 0 c24 0 35 -5 35 -15z m-5790 -620 c0 -8 -7 -15 -15
-15 -8 0 -15 7 -15 15 0 8 7 15 15 15 8 0 15 -7 15 -15z m2830 -1365 l0 -380
-50 0 c-49 0 -50 -1 -50 -30 0 -23 -4 -30 -20 -30 -18 0 -20 -7 -20 -55 0 -42
-3 -55 -15 -55 -8 0 -15 -7 -15 -15 0 -8 -9 -15 -20 -15 -13 0 -20 -7 -20 -20
0 -11 -7 -20 -15 -20 -13 0 -15 30 -15 210 0 180 2 210 15 210 12 0 15 16 15
85 0 78 2 85 20 85 17 0 20 7 20 50 0 38 4 50 15 50 12 0 15 13 15 55 0 48 2
55 20 55 16 0 20 7 20 30 0 20 5 30 15 30 10 0 15 11 15 35 0 24 5 35 15 35
10 0 15 11 15 35 0 28 4 35 20 35 20 0 20 -7 20 -380z m1170 55 c0 -42 -3 -55
-15 -55 -12 0 -15 -18 -15 -100 0 -93 -1 -100 -20 -100 -19 0 -20 -7 -20 -90
0 -73 -3 -90 -15 -90 -12 0 -15 -14 -15 -65 0 -58 -2 -65 -20 -65 -18 0 -20
-7 -20 -55 0 -42 -3 -55 -15 -55 -8 0 -15 -7 -15 -15 0 -8 -9 -15 -20 -15 -13
0 -20 -7 -20 -20 0 -11 -7 -20 -15 -20 -8 0 -15 -7 -15 -15 0 -10 -11 -15 -35
-15 -24 0 -35 -5 -35 -15 0 -10 -11 -15 -35 -15 -32 0 -35 2 -35 30 0 23 4 30
20 30 13 0 20 7 20 20 0 11 7 20 15 20 10 0 15 11 15 35 0 24 -5 35 -15 35 -8
0 -15 -9 -15 -20 0 -16 -7 -20 -35 -20 -24 0 -35 -5 -35 -15 0 -8 -9 -15 -20
-15 -11 0 -20 7 -20 15 0 8 9 15 20 15 16 0 20 7 20 35 0 24 5 35 15 35 10 0
15 11 15 35 0 28 4 35 20 35 13 0 20 7 20 20 0 11 7 20 15 20 8 0 15 7 15 15
0 8 7 15 15 15 10 0 15 11 15 35 0 28 4 35 20 35 16 0 20 7 20 35 0 24 5 35
15 35 8 0 15 7 15 15 0 8 9 15 20 15 16 0 20 7 20 35 0 24 5 35 15 35 10 0 15
11 15 35 0 28 4 35 20 35 16 0 20 7 20 35 0 24 5 35 15 35 10 0 15 11 15 35 0
28 4 35 20 35 16 0 20 7 20 35 0 24 5 35 15 35 12 0 15 -13 15 -55z m-1030
-415 c0 -38 4 -50 15 -50 8 0 15 -7 15 -15 0 -8 9 -15 20 -15 11 0 20 7 20 15
0 10 10 15 30 15 29 0 30 -1 30 -50 l0 -50 35 0 c24 0 35 5 35 15 0 10 11 15
35 15 l35 0 0 -50 c0 -43 3 -50 20 -50 11 0 20 7 20 15 0 10 11 15 35 15 28 0
35 4 35 20 0 11 7 20 15 20 10 0 15 -11 15 -35 0 -24 5 -35 15 -35 8 0 15 7
15 15 0 8 9 15 20 15 13 0 20 7 20 20 0 11 7 20 15 20 10 0 15 -11 15 -35 0
-28 4 -35 20 -35 16 0 20 -7 20 -35 0 -28 -4 -35 -20 -35 -16 0 -20 -7 -20
-35 0 -24 -5 -35 -15 -35 -8 0 -15 -7 -15 -15 0 -13 -22 -15 -140 -15 -118 0
-140 2 -140 15 0 11 -12 15 -50 15 -38 0 -50 4 -50 15 0 10 -11 15 -35 15 -28
0 -35 4 -35 20 0 16 -7 20 -35 20 -33 0 -35 2 -35 35 0 24 -5 35 -15 35 -8 0
-15 7 -15 15 0 8 -9 15 -20 15 -18 0 -20 7 -20 55 0 48 2 55 20 55 16 0 20 7
20 30 0 20 5 30 15 30 10 0 15 11 15 35 0 28 4 35 20 35 17 0 20 -7 20 -50z
m5990 -1465 c0 -24 -5 -35 -15 -35 -10 0 -15 -11 -15 -35 0 -28 -4 -35 -20
-35 -17 0 -20 -7 -20 -50 0 -38 -4 -50 -15 -50 -10 0 -15 -11 -15 -35 0 -24
-5 -35 -15 -35 -10 0 -15 -11 -15 -35 0 -28 -4 -35 -20 -35 -16 0 -20 -7 -20
-35 0 -24 -5 -35 -15 -35 -10 0 -15 -11 -15 -35 0 -28 -4 -35 -20 -35 -16 0
-20 -7 -20 -30 0 -20 -5 -30 -15 -30 -10 0 -15 -11 -15 -35 0 -28 -4 -35 -20
-35 -18 0 -20 -7 -20 -55 0 -42 -3 -55 -15 -55 -10 0 -15 -11 -15 -35 0 -28
-4 -35 -20 -35 -16 0 -20 -7 -20 -30 0 -20 -5 -30 -15 -30 -10 0 -15 -11 -15
-35 0 -24 -5 -35 -15 -35 -10 0 -15 -11 -15 -35 0 -28 -4 -35 -20 -35 -16 0
-20 -7 -20 -35 0 -24 -5 -35 -15 -35 -10 0 -15 -11 -15 -35 0 -28 -4 -35 -20
-35 -17 0 -20 -7 -20 -50 0 -38 -4 -50 -15 -50 -10 0 -15 -11 -15 -35 0 -28
-4 -35 -20 -35 -16 0 -20 -7 -20 -35 0 -24 -5 -35 -15 -35 -10 0 -15 -11 -15
-35 0 -28 -4 -35 -20 -35 -16 0 -20 -7 -20 -35 0 -24 -5 -35 -15 -35 -10 0
-15 -11 -15 -35 0 -24 -5 -35 -15 -35 -10 0 -15 -11 -15 -35 0 -28 -4 -35 -20
-35 -13 0 -20 7 -20 20 0 11 -7 20 -15 20 -8 0 -15 7 -15 15 0 8 -9 15 -20 15
-13 0 -20 7 -20 20 0 11 -7 20 -15 20 -8 0 -15 7 -15 15 0 8 -9 15 -20 15 -16
0 -20 7 -20 35 0 24 -5 35 -15 35 -8 0 -15 7 -15 15 0 8 -9 15 -20 15 -13 0
-20 7 -20 20 0 11 -7 20 -15 20 -8 0 -15 7 -15 15 0 8 -7 15 -15 15 -8 0 -15
9 -15 20 0 13 -7 20 -20 20 -11 0 -20 7 -20 15 0 8 -7 15 -15 15 -8 0 -15 9
-15 20 0 13 -7 20 -20 20 -11 0 -20 7 -20 15 0 8 -7 15 -15 15 -8 0 -15 9 -15
20 0 13 -7 20 -20 20 -16 0 -20 7 -20 30 0 20 -5 30 -15 30 -8 0 -15 9 -15 20
0 13 -7 20 -20 20 -11 0 -20 7 -20 15 0 8 -7 15 -15 15 -8 0 -15 9 -15 20 0
11 -7 20 -15 20 -8 0 -15 7 -15 15 0 8 -9 15 -20 15 -13 0 -20 7 -20 20 0 11
-7 20 -15 20 -13 0 -15 58 -15 465 0 407 2 465 15 465 8 0 15 7 15 15 0 13 85
15 705 15 l705 0 0 -35z m-15060 -395 c0 -13 7 -20 20 -20 11 0 20 -7 20 -15
0 -8 7 -15 15 -15 8 0 15 -9 15 -20 0 -16 7 -20 35 -20 24 0 35 -5 35 -15 0
-8 7 -15 15 -15 8 0 15 -7 15 -15 0 -8 9 -15 20 -15 13 0 20 -7 20 -20 0 -11
7 -20 15 -20 8 0 15 -7 15 -15 0 -8 9 -15 20 -15 16 0 20 -7 20 -35 0 -24 5
-35 15 -35 8 0 15 -9 15 -20 0 -13 7 -20 20 -20 11 0 20 -7 20 -15 0 -8 7 -15
15 -15 8 0 15 -9 15 -20 0 -13 7 -20 20 -20 11 0 20 -7 20 -15 0 -8 7 -15 15
-15 10 0 15 -11 15 -35 0 -24 5 -35 15 -35 8 0 15 -7 15 -15 0 -8 9 -15 20
-15 16 0 20 -7 20 -35 0 -24 5 -35 15 -35 10 0 15 -11 15 -35 0 -28 4 -35 20
-35 13 0 20 -7 20 -20 0 -11 7 -20 15 -20 10 0 15 -10 15 -30 0 -23 4 -30 20
-30 16 0 20 -7 20 -35 0 -24 5 -35 15 -35 12 0 15 -13 15 -55 0 -48 2 -55 20
-55 16 0 20 -7 20 -35 0 -24 5 -35 15 -35 11 0 15 -12 15 -50 0 -38 4 -50 15
-50 12 0 15 -14 15 -70 0 -63 2 -70 20 -70 17 0 20 -7 20 -50 0 -43 -3 -50
-20 -50 -11 0 -20 7 -20 15 0 8 -7 15 -15 15 -8 0 -15 9 -15 20 0 11 -7 20
-15 20 -8 0 -15 7 -15 15 0 8 -9 15 -20 15 -13 0 -20 7 -20 20 0 11 -7 20 -15
20 -8 0 -15 7 -15 15 0 8 -9 15 -20 15 -13 0 -20 7 -20 20 0 11 -7 20 -15 20
-8 0 -15 7 -15 15 0 10 -11 15 -35 15 -24 0 -35 5 -35 15 0 8 -9 15 -20 15
-13 0 -20 7 -20 20 0 11 -7 20 -15 20 -8 0 -15 7 -15 15 0 8 -7 15 -15 15 -8
0 -15 9 -15 20 0 16 -7 20 -35 20 -24 0 -35 5 -35 15 0 8 -9 15 -20 15 -13 0
-20 7 -20 20 0 16 -7 20 -35 20 -24 0 -35 5 -35 15 0 8 -7 15 -15 15 -8 0 -15
9 -15 20 0 16 -7 20 -35 20 -24 0 -35 5 -35 15 0 8 -7 15 -15 15 -8 0 -15 9
-15 20 0 16 -7 20 -35 20 -24 0 -35 5 -35 15 0 8 -9 15 -20 15 -11 0 -20 7
-20 15 0 10 -11 15 -35 15 -28 0 -35 4 -35 20 0 11 -7 20 -15 20 -8 0 -15 7
-15 15 0 10 -11 15 -35 15 -28 0 -35 4 -35 20 0 16 -7 20 -35 20 -24 0 -35 5
-35 15 0 8 -7 15 -15 15 -8 0 -15 9 -15 20 0 16 -7 20 -35 20 -24 0 -35 5 -35
15 0 10 -11 15 -35 15 -33 0 -35 2 -35 35 0 24 5 35 15 35 12 0 15 14 15 70
l0 70 35 0 c28 0 35 -4 35 -20 0 -16 7 -20 35 -20 24 0 35 -5 35 -15 0 -10 11
-15 35 -15 28 0 35 -4 35 -20 0 -16 7 -20 35 -20 24 0 35 -5 35 -15 0 -10 11
-15 35 -15 24 0 35 -5 35 -15 0 -10 11 -15 35 -15 28 0 35 -4 35 -20 0 -11 7
-20 15 -20 8 0 15 -7 15 -15 0 -8 9 -15 20 -15 11 0 20 7 20 15 0 8 -9 15 -20
15 -16 0 -20 7 -20 35 0 24 -5 35 -15 35 -10 0 -15 11 -15 35 0 28 -4 35 -20
35 -16 0 -20 7 -20 35 0 24 -5 35 -15 35 -8 0 -15 7 -15 15 0 8 -9 15 -20 15
-16 0 -20 7 -20 35 0 24 -5 35 -15 35 -8 0 -15 9 -15 20 0 13 -7 20 -20 20
-11 0 -20 7 -20 15 0 8 -7 15 -15 15 -8 0 -15 7 -15 15 0 8 -7 15 -15 15 -10
0 -15 11 -15 35 0 32 2 35 30 35 23 0 30 4 30 20 0 18 7 20 70 20 63 0 70 -2
70 -20z m-1140 -790 c0 -18 7 -20 55 -20 42 0 55 -3 55 -15 0 -10 11 -15 35
-15 28 0 35 -4 35 -20 0 -16 7 -20 35 -20 24 0 35 -5 35 -15 0 -10 10 -15 30
-15 23 0 30 -4 30 -20 0 -16 7 -20 35 -20 24 0 35 -5 35 -15 0 -10 11 -15 35
-15 28 0 35 -4 35 -20 0 -13 7 -20 20 -20 11 0 20 -7 20 -15 0 -10 11 -15 35
-15 28 0 35 -4 35 -20 0 -11 7 -20 15 -20 8 0 15 -7 15 -15 0 -10 11 -15 35
-15 24 0 35 -5 35 -15 0 -8 7 -15 15 -15 8 0 15 -9 15 -20 0 -13 7 -20 20 -20
11 0 20 -7 20 -15 0 -8 7 -15 15 -15 8 0 15 -9 15 -20 0 -13 7 -20 20 -20 11
0 20 -7 20 -15 0 -10 11 -15 35 -15 28 0 35 -4 35 -20 0 -11 7 -20 15 -20 8 0
15 -7 15 -15 0 -8 9 -15 20 -15 16 0 20 -7 20 -35 0 -24 5 -35 15 -35 8 0 15
-7 15 -15 0 -8 7 -15 15 -15 8 0 15 -9 15 -20 0 -13 7 -20 20 -20 11 0 20 -7
20 -15 0 -8 7 -15 15 -15 8 0 15 -9 15 -20 0 -13 7 -20 20 -20 16 0 20 -7 20
-35 0 -24 5 -35 15 -35 8 0 15 -7 15 -15 0 -8 9 -15 20 -15 16 0 20 -7 20 -35
0 -24 5 -35 15 -35 8 0 15 -7 15 -15 0 -11 -12 -15 -50 -15 -38 0 -50 4 -50
15 0 10 -11 15 -35 15 -24 0 -35 5 -35 15 0 10 -11 15 -35 15 -28 0 -35 4 -35
20 0 17 -7 20 -50 20 -38 0 -50 4 -50 15 0 10 -11 15 -35 15 -28 0 -35 4 -35
20 0 18 -7 20 -70 20 -56 0 -70 3 -70 15 0 11 -12 15 -50 15 -43 0 -50 3 -50
20 0 18 -7 20 -70 20 -56 0 -70 3 -70 15 0 12 -14 15 -70 15 -63 0 -70 2 -70
20 0 18 -7 20 -70 20 -56 0 -70 3 -70 15 0 12 -18 15 -100 15 -82 0 -100 3
-100 15 0 12 -17 15 -90 15 l-90 0 0 70 c0 56 -3 70 -15 70 -10 0 -15 11 -15
35 l0 35 155 0 c131 0 155 -2 155 -15 0 -12 14 -15 70 -15 63 0 70 -2 70 -20
0 -16 7 -20 35 -20 28 0 35 4 35 20 0 13 -7 20 -20 20 -11 0 -20 7 -20 15 0 8
-7 15 -15 15 -8 0 -15 9 -15 20 0 13 -7 20 -20 20 -11 0 -20 7 -20 15 0 8 -7
15 -15 15 -8 0 -15 7 -15 15 0 8 -9 15 -20 15 -13 0 -20 7 -20 20 0 16 -7 20
-35 20 -24 0 -35 5 -35 15 0 8 -7 15 -15 15 -8 0 -15 9 -15 20 0 16 -7 20 -35
20 -24 0 -35 5 -35 15 0 10 -11 15 -35 15 -28 0 -35 4 -35 20 0 11 -7 20 -15
20 -8 0 -15 7 -15 15 0 8 7 15 15 15 8 0 15 9 15 20 0 13 7 20 20 20 11 0 20
7 20 15 0 8 7 15 15 15 8 0 15 9 15 20 0 17 7 20 50 20 43 0 50 -3 50 -20z
m-170 -1275 c0 -12 16 -15 85 -15 78 0 85 -2 85 -20 0 -18 7 -20 70 -20 56 0
70 -3 70 -15 0 -12 13 -15 55 -15 48 0 55 -2 55 -20 0 -17 7 -20 50 -20 38 0
50 -4 50 -15 0 -10 11 -15 35 -15 28 0 35 -4 35 -20 0 -16 7 -20 35 -20 24 0
35 -5 35 -15 0 -10 11 -15 35 -15 28 0 35 -4 35 -20 0 -16 7 -20 30 -20 20 0
30 -5 30 -15 0 -10 11 -15 35 -15 24 0 35 -5 35 -15 0 -8 9 -15 20 -15 13 0
20 -7 20 -20 0 -16 7 -20 35 -20 24 0 35 -5 35 -15 0 -8 7 -15 15 -15 8 0 15
-9 15 -20 0 -16 7 -20 35 -20 24 0 35 -5 35 -15 0 -8 9 -15 20 -15 13 0 20 -7
20 -20 0 -11 7 -20 15 -20 8 0 15 -7 15 -15 0 -8 7 -15 15 -15 8 0 15 -9 15
-20 0 -13 7 -20 20 -20 11 0 20 -7 20 -15 0 -8 7 -15 15 -15 8 0 15 -9 15 -20
0 -16 -7 -20 -35 -20 -28 0 -35 4 -35 20 0 19 -7 20 -120 20 -100 0 -120 3
-120 15 0 13 -54 15 -430 15 -376 0 -430 -2 -430 -15 0 -13 -26 -15 -170 -15
-144 0 -170 2 -170 15 0 8 -9 15 -20 15 -16 0 -20 7 -20 35 0 24 -5 35 -15 35
-10 0 -15 11 -15 35 0 33 2 35 35 35 28 0 35 4 35 20 0 18 7 20 85 20 69 0 85
3 85 15 0 13 20 15 120 15 113 0 120 1 120 20 0 11 -7 20 -15 20 -8 0 -15 7
-15 15 0 10 -11 15 -35 15 -24 0 -35 5 -35 15 0 10 -11 15 -35 15 -28 0 -35 4
-35 20 0 18 -7 20 -55 20 -42 0 -55 3 -55 15 0 12 -14 15 -65 15 -58 0 -65 2
-65 20 0 18 -7 20 -55 20 -42 0 -55 3 -55 15 0 8 9 15 20 15 16 0 20 7 20 35
0 24 5 35 15 35 8 0 15 9 15 20 0 13 7 20 20 20 11 0 20 7 20 15 0 13 22 15
135 15 113 0 135 -2 135 -15z m690 -1380 c0 -12 18 -15 105 -15 98 0 105 -1
105 -20 0 -18 7 -20 70 -20 56 0 70 -3 70 -15 0 -11 12 -15 50 -15 43 0 50 -3
50 -20 0 -17 7 -20 50 -20 38 0 50 -4 50 -15 0 -12 13 -15 55 -15 48 0 55 -2
55 -20 0 -16 7 -20 35 -20 24 0 35 -5 35 -15 0 -10 10 -15 30 -15 20 0 30 -5
30 -15 0 -10 11 -15 35 -15 28 0 35 -4 35 -20 0 -19 -7 -20 -155 -20 -131 0
-155 -2 -155 -15 0 -12 -16 -15 -85 -15 -78 0 -85 -2 -85 -20 0 -18 -7 -20
-70 -20 -56 0 -70 -3 -70 -15 0 -11 -12 -15 -50 -15 -43 0 -50 -3 -50 -20 0
-18 -7 -20 -70 -20 -56 0 -70 -3 -70 -15 0 -11 -12 -15 -50 -15 -43 0 -50 -3
-50 -20 0 -18 -7 -20 -55 -20 -42 0 -55 -3 -55 -15 0 -11 -12 -15 -50 -15 -38
0 -50 -4 -50 -15 0 -11 -12 -15 -50 -15 -43 0 -50 -3 -50 -20 0 -16 -7 -20
-35 -20 -24 0 -35 -5 -35 -15 0 -11 -12 -15 -50 -15 -43 0 -50 -3 -50 -20 0
-13 -7 -20 -20 -20 -13 0 -20 7 -20 20 0 11 -7 20 -15 20 -8 0 -15 7 -15 15 0
8 -9 15 -20 15 -13 0 -20 7 -20 20 0 11 -7 20 -15 20 -10 0 -15 10 -15 30 0
20 5 30 15 30 8 0 15 9 15 20 0 16 7 20 35 20 24 0 35 5 35 15 0 10 11 15 35
15 28 0 35 4 35 20 0 16 7 20 35 20 24 0 35 5 35 15 0 11 12 15 50 15 43 0 50
3 50 20 0 18 7 20 55 20 42 0 55 3 55 15 0 12 -13 15 -55 15 -48 0 -55 2 -55
20 0 19 -7 20 -225 20 l-225 0 0 65 c0 58 2 65 20 65 16 0 20 7 20 35 l0 35
50 0 c43 0 50 3 50 20 0 19 7 20 105 20 87 0 105 3 105 15 0 13 33 15 240 15
207 0 240 -2 240 -15z m15410 -520 c0 -8 7 -15 15 -15 8 0 15 -7 15 -15 0 -8
9 -15 20 -15 16 0 20 -7 20 -35 0 -24 5 -35 15 -35 8 0 15 -9 15 -20 0 -16 -7
-20 -35 -20 -24 0 -35 -5 -35 -15 0 -8 -7 -15 -15 -15 -8 0 -15 -9 -15 -20 0
-18 -7 -20 -55 -20 -42 0 -55 -3 -55 -15 0 -10 -10 -15 -30 -15 -23 0 -30 -4
-30 -20 0 -18 -7 -20 -55 -20 -42 0 -55 -3 -55 -15 0 -10 -11 -15 -35 -15 -24
0 -35 -5 -35 -15 0 -12 13 -15 55 -15 48 0 55 -2 55 -20 0 -19 7 -20 220 -20
l220 0 0 -50 c0 -38 -4 -50 -15 -50 -10 0 -15 -11 -15 -35 0 -24 -5 -35 -15
-35 -8 0 -15 -9 -15 -20 0 -16 -7 -20 -35 -20 -24 0 -35 -5 -35 -15 0 -12 -20
-15 -120 -15 -113 0 -120 -1 -120 -20 0 -19 -7 -20 -225 -20 -218 0 -225 1
-225 20 0 19 -7 20 -120 20 -100 0 -120 3 -120 15 0 12 -13 15 -55 15 -48 0
-55 2 -55 20 0 18 -7 20 -65 20 -51 0 -65 3 -65 15 0 12 -13 15 -55 15 -48 0
-55 2 -55 20 0 16 -7 20 -35 20 -24 0 -35 5 -35 15 0 10 -11 15 -35 15 -28 0
-35 4 -35 20 0 16 -7 20 -35 20 -24 0 -35 5 -35 15 0 10 -10 15 -30 15 -23 0
-30 4 -30 20 0 19 7 20 135 20 113 0 135 2 135 15 0 12 18 15 105 15 87 0 105
3 105 15 0 12 14 15 70 15 63 0 70 2 70 20 0 17 7 20 50 20 38 0 50 4 50 15 0
11 12 15 50 15 43 0 50 3 50 20 0 18 7 20 70 20 56 0 70 3 70 15 0 11 12 15
50 15 43 0 50 3 50 20 0 18 7 20 55 20 42 0 55 3 55 15 0 10 11 15 35 15 28 0
35 4 35 20 0 17 7 20 50 20 38 0 50 4 50 15 0 11 12 15 50 15 38 0 50 4 50 15
0 8 9 15 20 15 11 0 20 -7 20 -15z m-1000 -1375 c0 -19 7 -20 120 -20 100 0
120 -2 120 -15 0 -13 53 -15 415 -15 362 0 415 2 415 15 0 13 28 15 190 15
l190 0 0 -35 c0 -24 5 -35 15 -35 10 0 15 -11 15 -35 0 -28 4 -35 20 -35 11 0
20 -7 20 -15 0 -10 -11 -15 -35 -15 -28 0 -35 -4 -35 -20 0 -19 -7 -20 -90
-20 -73 0 -90 -3 -90 -15 0 -12 -20 -15 -120 -15 -100 0 -120 -2 -120 -15 0
-8 9 -15 20 -15 13 0 20 -7 20 -20 0 -16 7 -20 35 -20 24 0 35 -5 35 -15 0
-10 10 -15 30 -15 23 0 30 -4 30 -20 0 -18 7 -20 55 -20 42 0 55 -3 55 -15 0
-12 14 -15 70 -15 63 0 70 -2 70 -20 0 -16 7 -20 35 -20 33 0 35 -2 35 -35 0
-28 -4 -35 -20 -35 -16 0 -20 -7 -20 -30 0 -20 -5 -30 -15 -30 -8 0 -15 -9
-15 -20 0 -19 -7 -20 -140 -20 -133 0 -140 1 -140 20 0 18 -7 20 -85 20 -69 0
-85 3 -85 15 0 12 -14 15 -70 15 -56 0 -70 3 -70 15 0 11 -12 15 -50 15 -43 0
-50 3 -50 20 0 18 -7 20 -55 20 -42 0 -55 3 -55 15 0 10 -11 15 -35 15 -28 0
-35 4 -35 20 0 17 -7 20 -50 20 -38 0 -50 4 -50 15 0 10 -11 15 -35 15 -28 0
-35 4 -35 20 0 11 -7 20 -15 20 -8 0 -15 7 -15 15 0 10 -11 15 -35 15 -28 0
-35 4 -35 20 0 16 -7 20 -35 20 -24 0 -35 5 -35 15 0 8 -7 15 -15 15 -8 0 -15
7 -15 15 0 10 -11 15 -35 15 -28 0 -35 4 -35 20 0 13 -7 20 -20 20 -11 0 -20
7 -20 15 0 8 -7 15 -15 15 -8 0 -15 9 -15 20 0 13 -7 20 -20 20 -11 0 -20 7
-20 15 0 8 -7 15 -15 15 -8 0 -15 9 -15 20 0 16 -7 20 -35 20 -24 0 -35 5 -35
15 0 8 -7 15 -15 15 -8 0 -15 9 -15 20 0 17 7 20 50 20 43 0 50 -3 50 -20z
m-6860 -760 c0 -19 7 -20 155 -20 131 0 155 -2 155 -15 0 -13 24 -15 155 -15
148 0 155 -1 155 -20 0 -19 7 -20 155 -20 131 0 155 -2 155 -15 0 -13 24 -15
155 -15 148 0 155 -1 155 -20 0 -19 7 -20 155 -20 131 0 155 -2 155 -15 0 -12
14 -15 70 -15 56 0 70 -3 70 -15 0 -11 12 -15 50 -15 43 0 50 -3 50 -20 0 -16
7 -20 35 -20 24 0 35 -5 35 -15 0 -8 9 -15 20 -15 13 0 20 -7 20 -20 0 -16 7
-20 30 -20 20 0 30 -5 30 -15 0 -8 9 -15 20 -15 13 0 20 -7 20 -20 0 -11 7
-20 15 -20 8 0 15 -7 15 -15 0 -8 9 -15 20 -15 13 0 20 -7 20 -20 0 -11 7 -20
15 -20 10 0 15 -10 15 -30 0 -23 4 -30 20 -30 13 0 20 -7 20 -20 0 -11 7 -20
15 -20 10 0 15 -11 15 -35 0 -28 4 -35 20 -35 17 0 20 -7 20 -50 0 -38 4 -50
15 -50 12 0 15 -14 15 -70 0 -56 3 -70 15 -70 12 0 15 -18 15 -105 0 -87 -3
-105 -15 -105 -12 0 -15 -14 -15 -65 0 -51 -3 -65 -15 -65 -12 0 -15 -13 -15
-55 0 -48 -2 -55 -20 -55 -16 0 -20 -7 -20 -35 0 -24 -5 -35 -15 -35 -8 0 -15
-7 -15 -15 0 -8 -9 -15 -20 -15 -16 0 -20 -7 -20 -35 0 -33 -2 -35 -35 -35
-24 0 -35 -5 -35 -15 0 -8 -7 -15 -15 -15 -8 0 -15 -9 -15 -20 0 -16 -7 -20
-35 -20 -24 0 -35 -5 -35 -15 0 -8 -7 -15 -15 -15 -8 0 -15 -9 -15 -20 0 -16
-7 -20 -35 -20 -24 0 -35 -5 -35 -15 0 -8 -9 -15 -20 -15 -13 0 -20 -7 -20
-20 0 -16 -7 -20 -35 -20 -24 0 -35 -5 -35 -15 0 -8 -7 -15 -15 -15 -8 0 -15
-7 -15 -15 0 -10 -11 -15 -35 -15 -28 0 -35 -4 -35 -20 0 -11 -7 -20 -15 -20
-8 0 -15 -7 -15 -15 0 -10 -11 -15 -35 -15 -28 0 -35 -4 -35 -20 0 -13 -7 -20
-20 -20 -11 0 -20 -7 -20 -15 0 -10 -11 -15 -35 -15 -28 0 -35 -4 -35 -20 0
-16 -7 -20 -35 -20 -24 0 -35 -5 -35 -15 0 -8 -7 -15 -15 -15 -8 0 -15 -9 -15
-20 0 -16 -7 -20 -35 -20 -24 0 -35 -5 -35 -15 0 -10 -11 -15 -35 -15 -28 0
-35 -4 -35 -20 0 -11 -7 -20 -15 -20 -8 0 -15 -7 -15 -15 0 -10 -11 -15 -35
-15 -24 0 -35 -5 -35 -15 0 -10 -11 -15 -35 -15 -28 0 -35 -4 -35 -20 0 -16
-7 -20 -35 -20 -24 0 -35 -5 -35 -15 0 -10 -11 -15 -35 -15 -28 0 -35 -4 -35
-20 0 -11 -7 -20 -15 -20 -8 0 -15 -7 -15 -15 0 -10 -11 -15 -35 -15 -28 0
-35 -4 -35 -20 0 -16 -7 -20 -35 -20 -24 0 -35 -5 -35 -15 0 -10 -11 -15 -35
-15 -28 0 -35 -4 -35 -20 0 -16 -7 -20 -35 -20 -24 0 -35 -5 -35 -15 0 -10
-11 -15 -35 -15 -24 0 -35 -5 -35 -15 0 -10 -11 -15 -35 -15 -28 0 -35 -4 -35
-20 0 -16 -7 -20 -35 -20 -24 0 -35 -5 -35 -15 0 -10 -10 -15 -30 -15 -23 0
-30 -4 -30 -20 0 -16 -7 -20 -35 -20 -24 0 -35 -5 -35 -15 0 -10 -11 -15 -35
-15 -28 0 -35 -4 -35 -20 0 -16 -7 -20 -35 -20 -24 0 -35 -5 -35 -15 0 -10
-11 -15 -35 -15 -28 0 -35 -4 -35 -20 0 -18 -7 -20 -85 -20 -78 0 -85 2 -85
20 0 16 -7 20 -35 20 -24 0 -35 5 -35 15 0 10 -11 15 -35 15 -28 0 -35 4 -35
20 0 16 -7 20 -35 20 -24 0 -35 5 -35 15 0 10 -11 15 -35 15 -28 0 -35 4 -35
20 0 16 -7 20 -35 20 -24 0 -35 5 -35 15 0 10 -11 15 -35 15 -28 0 -35 4 -35
20 0 16 -7 20 -35 20 -24 0 -35 5 -35 15 0 10 -10 15 -30 15 -20 0 -30 5 -30
15 0 10 -11 15 -35 15 -28 0 -35 4 -35 20 0 16 -7 20 -35 20 -24 0 -35 5 -35
15 0 10 -11 15 -35 15 -28 0 -35 4 -35 20 0 16 -7 20 -35 20 -24 0 -35 5 -35
15 0 8 -7 15 -15 15 -8 0 -15 9 -15 20 0 16 -7 20 -35 20 -24 0 -35 5 -35 15
0 10 -11 15 -35 15 -28 0 -35 4 -35 20 0 16 -7 20 -35 20 -24 0 -35 5 -35 15
0 8 -9 15 -20 15 -11 0 -20 7 -20 15 0 10 -10 15 -30 15 -23 0 -30 4 -30 20 0
16 -7 20 -35 20 -24 0 -35 5 -35 15 0 10 -11 15 -35 15 -28 0 -35 4 -35 20 0
13 -7 20 -20 20 -11 0 -20 7 -20 15 0 10 -11 15 -35 15 -28 0 -35 4 -35 20 0
16 -7 20 -30 20 -20 0 -30 5 -30 15 0 8 -9 15 -20 15 -13 0 -20 7 -20 20 0 16
-7 20 -35 20 -24 0 -35 5 -35 15 0 8 -7 15 -15 15 -8 0 -15 9 -15 20 0 16 -7
20 -35 20 -24 0 -35 5 -35 15 0 8 -9 15 -20 15 -11 0 -20 7 -20 15 0 10 -10
15 -30 15 -23 0 -30 4 -30 20 0 13 -7 20 -20 20 -11 0 -20 7 -20 15 0 10 -11
15 -35 15 -28 0 -35 4 -35 20 0 11 -7 20 -15 20 -8 0 -15 7 -15 15 0 10 -11
15 -35 15 -28 0 -35 4 -35 20 0 13 -7 20 -20 20 -11 0 -20 7 -20 15 0 10 -11
15 -35 15 -28 0 -35 4 -35 20 0 11 -7 20 -15 20 -10 0 -15 10 -15 30 0 20 -5
30 -15 30 -10 0 -15 11 -15 35 0 28 -4 35 -20 35 -16 0 -20 7 -20 35 0 24 -5
35 -15 35 -12 0 -15 14 -15 70 0 63 -2 70 -20 70 -19 0 -20 7 -20 140 0 133 1
140 20 140 18 0 20 7 20 65 0 51 3 65 15 65 10 0 15 11 15 35 0 28 4 35 20 35
16 0 20 7 20 35 0 24 5 35 15 35 10 0 15 11 15 35 0 24 5 35 15 35 8 0 15 7
15 15 0 8 9 15 20 15 13 0 20 7 20 20 0 11 7 20 15 20 8 0 15 7 15 15 0 8 9
15 20 15 13 0 20 7 20 20 0 11 7 20 15 20 8 0 15 7 15 15 0 8 9 15 20 15 13 0
20 7 20 20 0 16 7 20 35 20 24 0 35 5 35 15 0 10 11 15 35 15 28 0 35 4 35 20
0 17 7 20 50 20 38 0 50 4 50 15 0 12 14 15 70 15 56 0 70 3 70 15 0 13 24 15
155 15 148 0 155 1 155 20 0 19 7 20 155 20 131 0 155 2 155 15 0 13 24 15
155 15 148 0 155 1 155 20 0 19 7 20 155 20 131 0 155 2 155 15 0 13 24 15
155 15 148 0 155 1 155 20 0 18 7 20 85 20 78 0 85 -2 85 -20z m6720 -105 c0
-8 9 -15 20 -15 13 0 20 -7 20 -20 0 -16 7 -20 30 -20 20 0 30 -5 30 -15 0
-12 13 -15 55 -15 42 0 55 -3 55 -15 0 -10 11 -15 35 -15 28 0 35 -4 35 -20 0
-17 7 -20 50 -20 38 0 50 -4 50 -15 0 -11 12 -15 50 -15 43 0 50 -3 50 -20 0
-18 7 -20 55 -20 42 0 55 -3 55 -15 0 -12 14 -15 65 -15 58 0 65 -2 65 -20 0
-18 7 -20 70 -20 56 0 70 -3 70 -15 0 -12 14 -15 70 -15 63 0 70 -2 70 -20 0
-18 7 -20 85 -20 69 0 85 -3 85 -15 0 -12 16 -15 85 -15 69 0 85 -3 85 -15 0
-12 13 -15 55 -15 l55 0 0 -105 0 -105 -70 0 c-56 0 -70 3 -70 15 0 13 -20 15
-120 15 -113 0 -120 1 -120 20 0 17 -7 20 -50 20 -43 0 -50 -3 -50 -20 0 -11
7 -20 15 -20 8 0 15 -7 15 -15 0 -8 7 -15 15 -15 8 0 15 -9 15 -20 0 -13 7
-20 20 -20 11 0 20 -7 20 -15 0 -8 7 -15 15 -15 8 0 15 -7 15 -15 0 -10 11
-15 35 -15 28 0 35 -4 35 -20 0 -13 7 -20 20 -20 11 0 20 -7 20 -15 0 -10 11
-15 35 -15 28 0 35 -4 35 -20 0 -16 7 -20 30 -20 20 0 30 -5 30 -15 0 -8 9
-15 20 -15 16 0 20 -7 20 -35 0 -28 -4 -35 -20 -35 -13 0 -20 -7 -20 -20 0
-11 -7 -20 -15 -20 -8 0 -15 -7 -15 -15 0 -12 -16 -15 -85 -15 -69 0 -85 3
-85 15 0 10 -11 15 -35 15 -28 0 -35 4 -35 20 0 17 -7 20 -50 20 -38 0 -50 4
-50 15 0 10 -11 15 -35 15 -28 0 -35 4 -35 20 0 16 -7 20 -35 20 -24 0 -35 5
-35 15 0 8 -9 15 -20 15 -13 0 -20 7 -20 20 0 16 -7 20 -35 20 -24 0 -35 5
-35 15 0 10 -10 15 -30 15 -23 0 -30 4 -30 20 0 13 -7 20 -20 20 -11 0 -20 7
-20 15 0 8 -7 15 -15 15 -8 0 -15 7 -15 15 0 10 -11 15 -35 15 -28 0 -35 4
-35 20 0 13 -7 20 -20 20 -11 0 -20 7 -20 15 0 8 -7 15 -15 15 -8 0 -15 9 -15
20 0 13 -7 20 -20 20 -11 0 -20 7 -20 15 0 8 -7 15 -15 15 -8 0 -15 9 -15 20
0 11 -7 20 -15 20 -8 0 -15 7 -15 15 0 8 -9 15 -20 15 -13 0 -20 7 -20 20 0
11 -7 20 -15 20 -8 0 -15 7 -15 15 0 8 -9 15 -20 15 -11 0 -20 7 -20 15 0 8
-7 15 -15 15 -8 0 -15 9 -15 20 0 13 -7 20 -20 20 -11 0 -20 7 -20 15 0 8 -7
15 -15 15 -8 0 -15 9 -15 20 0 13 -7 20 -20 20 -16 0 -20 7 -20 35 0 24 -5 35
-15 35 -8 0 -15 7 -15 15 0 8 -7 15 -15 15 -10 0 -15 11 -15 35 0 28 -4 35
-20 35 -11 0 -20 7 -20 15 0 8 -7 15 -15 15 -10 0 -15 11 -15 35 0 24 5 35 15
35 8 0 15 -7 15 -15z m-620 -445 c0 -11 7 -20 15 -20 8 0 15 -7 15 -15 0 -8 9
-15 20 -15 13 0 20 -7 20 -20 0 -11 7 -20 15 -20 8 0 15 -7 15 -15 0 -8 9 -15
20 -15 13 0 20 -7 20 -20 0 -11 7 -20 15 -20 8 0 15 -7 15 -15 0 -8 9 -15 20
-15 13 0 20 -7 20 -20 0 -11 7 -20 15 -20 8 0 15 -7 15 -15 0 -10 11 -15 35
-15 24 0 35 -5 35 -15 0 -8 7 -15 15 -15 8 0 15 -9 15 -20 0 -13 7 -20 20 -20
11 0 20 -7 20 -15 0 -8 7 -15 15 -15 8 0 15 -9 15 -20 0 -16 7 -20 35 -20 24
0 35 -5 35 -15 0 -8 9 -15 20 -15 13 0 20 -7 20 -20 0 -16 7 -20 35 -20 24 0
35 -5 35 -15 0 -8 7 -15 15 -15 8 0 15 -9 15 -20 0 -16 7 -20 35 -20 24 0 35
-5 35 -15 0 -8 7 -15 15 -15 8 0 15 -7 15 -15 0 -10 11 -15 35 -15 28 0 35 -4
35 -20 0 -13 7 -20 20 -20 11 0 20 -7 20 -15 0 -10 11 -15 35 -15 28 0 35 -4
35 -20 0 -16 7 -20 35 -20 24 0 35 -5 35 -15 0 -8 7 -15 15 -15 8 0 15 -9 15
-20 0 -16 7 -20 35 -20 24 0 35 -5 35 -15 0 -10 11 -15 35 -15 28 0 35 -4 35
-20 0 -11 7 -20 15 -20 8 0 15 -7 15 -15 0 -8 9 -15 20 -15 17 0 20 -7 20 -50
0 -43 -3 -50 -20 -50 -16 0 -20 -7 -20 -35 l0 -35 -50 0 c-38 0 -50 4 -50 15
0 10 -11 15 -35 15 -28 0 -35 4 -35 20 0 16 -7 20 -35 20 -24 0 -35 5 -35 15
0 10 -11 15 -35 15 -28 0 -35 4 -35 20 0 11 -7 20 -15 20 -8 0 -15 7 -15 15 0
10 -11 15 -35 15 -24 0 -35 5 -35 15 0 8 -9 15 -20 15 -16 0 -20 -7 -20 -30 0
-23 4 -30 20 -30 16 0 20 -7 20 -35 0 -24 5 -35 15 -35 10 0 15 -11 15 -35 0
-28 4 -35 20 -35 13 0 20 -7 20 -20 0 -11 7 -20 15 -20 10 0 15 -11 15 -35 0
-28 4 -35 20 -35 11 0 20 -7 20 -15 0 -8 7 -15 15 -15 8 0 15 -7 15 -15 0 -8
9 -15 20 -15 13 0 20 -7 20 -20 0 -11 7 -20 15 -20 10 0 15 -11 15 -35 0 -24
-5 -35 -15 -35 -8 0 -15 -7 -15 -15 0 -12 -13 -15 -55 -15 -48 0 -55 -2 -55
-20 0 -11 -7 -20 -15 -20 -8 0 -15 9 -15 20 0 13 -7 20 -20 20 -11 0 -20 7
-20 15 0 10 -11 15 -35 15 -28 0 -35 4 -35 20 0 11 -7 20 -15 20 -8 0 -15 7
-15 15 0 8 -7 15 -15 15 -8 0 -15 9 -15 20 0 13 -7 20 -20 20 -11 0 -20 7 -20
15 0 8 -7 15 -15 15 -8 0 -15 7 -15 15 0 8 -9 15 -20 15 -13 0 -20 7 -20 20 0
11 -7 20 -15 20 -8 0 -15 7 -15 15 0 8 -9 15 -20 15 -13 0 -20 7 -20 20 0 11
-7 20 -15 20 -10 0 -15 11 -15 35 0 28 -4 35 -20 35 -11 0 -20 7 -20 15 0 8
-7 15 -15 15 -8 0 -15 9 -15 20 0 13 -7 20 -20 20 -16 0 -20 7 -20 30 0 20 -5
30 -15 30 -8 0 -15 9 -15 20 0 11 -7 20 -15 20 -10 0 -15 11 -15 35 0 28 -4
35 -20 35 -11 0 -20 7 -20 15 0 8 -7 15 -15 15 -10 0 -15 11 -15 35 0 28 -4
35 -20 35 -16 0 -20 7 -20 35 0 24 -5 35 -15 35 -10 0 -15 11 -15 35 0 28 -4
35 -20 35 -17 0 -20 7 -20 50 0 38 -4 50 -15 50 -10 0 -15 11 -15 35 0 28 -4
35 -20 35 -17 0 -20 7 -20 50 0 38 -4 50 -15 50 -12 0 -15 14 -15 70 0 56 -3
70 -15 70 -12 0 -15 13 -15 55 0 42 3 55 15 55 8 0 15 -9 15 -20z"/>
<path d="M760 13050 c0 -11 7 -20 15 -20 10 0 15 -11 15 -35 0 -28 4 -35 20
-35 16 0 20 -7 20 -35 0 -24 5 -35 15 -35 10 0 15 -10 15 -30 0 -23 4 -30 20
-30 16 0 20 -7 20 -35 0 -24 5 -35 15 -35 12 0 15 -13 15 -55 0 -48 2 -55 20
-55 16 0 20 -7 20 -35 0 -24 5 -35 15 -35 10 0 15 -10 15 -30 0 -23 4 -30 20
-30 16 0 20 -7 20 -35 0 -24 5 -35 15 -35 10 0 15 -11 15 -35 0 -24 5 -35 15
-35 10 0 15 -11 15 -35 0 -28 4 -35 20 -35 17 0 20 -7 20 -50 0 -38 4 -50 15
-50 10 0 15 -11 15 -35 0 -28 4 -35 20 -35 16 0 20 -7 20 -35 0 -24 5 -35 15
-35 10 0 15 -11 15 -35 0 -28 4 -35 20 -35 16 0 20 -7 20 -35 0 -24 5 -35 15
-35 10 0 15 -11 15 -35 0 -28 4 -35 20 -35 16 0 20 -7 20 -35 0 -24 5 -35 15
-35 11 0 15 -12 15 -50 0 -38 4 -50 15 -50 10 0 15 -11 15 -35 0 -28 4 -35 20
-35 16 0 20 -7 20 -35 0 -24 5 -35 15 -35 10 0 15 -11 15 -35 0 -28 4 -35 20
-35 16 0 20 -7 20 -35 0 -24 5 -35 15 -35 10 0 15 -11 15 -35 0 -28 4 -35 20
-35 16 0 20 -7 20 -35 0 -24 5 -35 15 -35 11 0 15 -12 15 -50 l0 -50 965 0
c851 0 965 -2 965 -15 0 -8 9 -15 20 -15 18 0 20 -7 20 -55 0 -42 3 -55 15
-55 10 0 15 -11 15 -35 0 -28 4 -35 20 -35 16 0 20 -7 20 -30 0 -20 5 -30 15
-30 10 0 15 -11 15 -35 0 -24 5 -35 15 -35 10 0 15 -11 15 -35 0 -28 4 -35 20
-35 16 0 20 -7 20 -35 0 -24 5 -35 15 -35 11 0 15 -12 15 -50 0 -43 3 -50 20
-50 16 0 20 -7 20 -35 0 -24 5 -35 15 -35 10 0 15 -11 15 -35 0 -28 4 -35 20
-35 16 0 20 -7 20 -35 0 -24 5 -35 15 -35 10 0 15 -11 15 -35 0 -28 4 -35 20
-35 16 0 20 -7 20 -35 0 -24 5 -35 15 -35 10 0 15 -11 15 -35 0 -24 5 -35 15
-35 11 0 15 -12 15 -50 0 -43 3 -50 20 -50 16 0 20 -7 20 -35 0 -24 5 -35 15
-35 10 0 15 -11 15 -35 0 -28 4 -35 20 -35 16 0 20 -7 20 -35 0 -24 5 -35 15
-35 10 0 15 -11 15 -35 0 -28 4 -35 20 -35 16 0 20 -7 20 -35 0 -24 5 -35 15
-35 10 0 15 -11 15 -35 0 -28 4 -35 20 -35 17 0 20 -7 20 -50 0 -38 4 -50 15
-50 10 0 15 -11 15 -35 0 -24 5 -35 15 -35 10 0 15 -11 15 -35 0 -28 4 -35 20
-35 16 0 20 -7 20 -35 0 -24 5 -35 15 -35 10 0 15 -10 15 -30 l0 -30 965 0
965 0 0 -35 c0 -28 4 -35 20 -35 13 0 20 -7 20 -20 0 -11 7 -20 15 -20 10 0
15 -11 15 -35 0 -28 4 -35 20 -35 16 0 20 -7 20 -35 0 -24 5 -35 15 -35 10 0
15 -10 15 -30 0 -23 4 -30 20 -30 13 0 20 -7 20 -20 0 -11 7 -20 15 -20 10 0
15 -11 15 -35 0 -24 5 -35 15 -35 10 0 15 -11 15 -35 0 -28 4 -35 20 -35 16 0
20 -7 20 -35 0 -24 5 -35 15 -35 8 0 15 -7 15 -15 0 -8 9 -15 20 -15 16 0 20
-7 20 -35 0 -24 5 -35 15 -35 10 0 15 -11 15 -35 0 -28 4 -35 20 -35 18 0 20
7 20 55 0 48 -2 55 -20 55 -18 0 -20 7 -20 85 0 69 -3 85 -15 85 -13 0 -15 29
-15 205 0 176 2 205 15 205 8 0 15 9 15 20 0 19 -7 20 -190 20 -162 0 -190 2
-190 15 0 8 -7 15 -15 15 -10 0 -15 11 -15 35 0 28 -4 35 -20 35 -16 0 -20 7
-20 35 0 24 -5 35 -15 35 -10 0 -15 11 -15 35 0 24 -5 35 -15 35 -10 0 -15 11
-15 35 0 28 -4 35 -20 35 -16 0 -20 7 -20 30 0 20 -5 30 -15 30 -12 0 -15 13
-15 55 0 48 -2 55 -20 55 -16 0 -20 7 -20 35 0 24 -5 35 -15 35 -10 0 -15 11
-15 35 0 28 -4 35 -20 35 -16 0 -20 7 -20 35 0 24 -5 35 -15 35 -10 0 -15 10
-15 30 0 23 -4 30 -20 30 -16 0 -20 7 -20 35 0 24 -5 35 -15 35 -10 0 -15 11
-15 35 0 24 -5 35 -15 35 -12 0 -15 13 -15 55 0 48 -2 55 -20 55 -16 0 -20 7
-20 30 0 20 -5 30 -15 30 -10 0 -15 11 -15 35 0 28 -4 35 -20 35 -16 0 -20 7
-20 35 0 24 -5 35 -15 35 -10 0 -15 11 -15 35 0 28 -4 35 -20 35 -16 0 -20 7
-20 35 0 24 -5 35 -15 35 -10 0 -15 11 -15 35 0 28 -4 35 -20 35 -17 0 -20 7
-20 50 0 38 -4 50 -15 50 -10 0 -15 11 -15 35 0 24 -5 35 -15 35 -10 0 -15 11
-15 35 0 28 -4 35 -20 35 -16 0 -20 7 -20 35 0 24 -5 35 -15 35 -10 0 -15 11
-15 35 0 28 -4 35 -20 35 -17 0 -20 7 -20 50 l0 50 930 0 c820 0 930 -2 930
-15 0 -8 9 -15 20 -15 16 0 20 -7 20 -35 0 -24 5 -35 15 -35 10 0 15 -11 15
-35 0 -28 4 -35 20 -35 16 0 20 -7 20 -35 0 -24 5 -35 15 -35 10 0 15 -11 15
-35 0 -28 4 -35 20 -35 11 0 20 -7 20 -15 0 -8 7 -15 15 -15 10 0 15 -11 15
-35 0 -24 5 -35 15 -35 10 0 15 -11 15 -35 0 -28 4 -35 20 -35 16 0 20 -7 20
-35 0 -24 5 -35 15 -35 8 0 15 7 15 15 0 8 9 15 20 15 19 0 20 7 20 90 0 73 3
90 15 90 11 0 15 12 15 50 0 43 3 50 20 50 17 0 20 7 20 50 0 38 4 50 15 50 8
0 15 9 15 20 0 13 7 20 20 20 11 0 20 7 20 15 0 8 7 15 15 15 8 0 15 9 15 20
0 11 7 20 15 20 8 0 15 7 15 15 0 13 -37 15 -275 15 l-275 0 0 35 c0 24 -5 35
-15 35 -10 0 -15 11 -15 35 0 28 -4 35 -20 35 -16 0 -20 7 -20 35 0 24 -5 35
-15 35 -10 0 -15 11 -15 35 0 24 -5 35 -15 35 -10 0 -15 11 -15 35 0 28 -4 35
-20 35 -16 0 -20 7 -20 35 0 24 -5 35 -15 35 -10 0 -15 10 -15 30 0 23 -4 30
-20 30 -18 0 -20 7 -20 55 0 42 -3 55 -15 55 -10 0 -15 11 -15 35 0 28 -4 35
-20 35 -16 0 -20 7 -20 35 0 24 -5 35 -15 35 -10 0 -15 10 -15 30 0 23 -4 30
-20 30 -16 0 -20 7 -20 35 0 24 -5 35 -15 35 -10 0 -15 11 -15 35 0 24 -5 35
-15 35 -10 0 -15 11 -15 35 0 28 -4 35 -20 35 -17 0 -20 7 -20 50 0 38 -4 50
-15 50 -10 0 -15 11 -15 35 0 28 -4 35 -20 35 -16 0 -20 7 -20 35 0 24 -5 35
-15 35 -10 0 -15 11 -15 35 0 28 -4 35 -20 35 -16 0 -20 7 -20 35 0 24 -5 35
-15 35 -10 0 -15 11 -15 35 0 28 -4 35 -20 35 -16 0 -20 7 -20 35 0 24 -5 35
-15 35 -11 0 -15 12 -15 50 0 43 -3 50 -20 50 -16 0 -20 7 -20 35 0 24 -5 35
-15 35 -10 0 -15 11 -15 35 0 24 -5 35 -15 35 -10 0 -15 11 -15 35 0 28 -4 35
-20 35 -16 0 -20 7 -20 35 l0 35 -965 0 c-958 0 -965 0 -965 -20 0 -13 7 -20
20 -20 16 0 20 -7 20 -35 0 -24 5 -35 15 -35 10 0 15 -11 15 -35 0 -24 5 -35
15 -35 10 0 15 -10 15 -30 0 -23 4 -30 20 -30 16 0 20 -7 20 -35 0 -24 5 -35
15 -35 10 0 15 -11 15 -35 0 -28 4 -35 20 -35 16 0 20 -7 20 -35 0 -24 5 -35
15 -35 11 0 15 -12 15 -50 0 -43 3 -50 20 -50 16 0 20 -7 20 -35 0 -24 5 -35
15 -35 10 0 15 -11 15 -35 0 -28 4 -35 20 -35 16 0 20 -7 20 -35 0 -24 5 -35
15 -35 10 0 15 -11 15 -35 0 -24 5 -35 15 -35 10 0 15 -11 15 -35 0 -28 4 -35
20 -35 16 0 20 -7 20 -35 0 -24 5 -35 15 -35 11 0 15 -12 15 -50 0 -43 3 -50
20 -50 16 0 20 -7 20 -35 0 -24 5 -35 15 -35 10 0 15 -11 15 -35 0 -28 4 -35
20 -35 16 0 20 -7 20 -35 0 -24 5 -35 15 -35 10 0 15 -11 15 -35 0 -28 4 -35
20 -35 16 0 20 -7 20 -35 0 -24 5 -35 15 -35 10 0 15 -10 15 -30 0 -23 4 -30
20 -30 18 0 20 -7 20 -55 0 -42 3 -55 15 -55 10 0 15 -11 15 -35 0 -24 5 -35
15 -35 10 0 15 -11 15 -35 0 -28 4 -35 20 -35 16 0 20 -7 20 -35 0 -24 5 -35
15 -35 10 0 15 -10 15 -30 0 -23 4 -30 20 -30 13 0 20 -7 20 -20 0 -20 -7 -20
-950 -20 -943 0 -950 0 -950 20 0 11 -7 20 -15 20 -10 0 -15 10 -15 30 0 23
-4 30 -20 30 -18 0 -20 7 -20 55 0 42 -3 55 -15 55 -10 0 -15 11 -15 35 0 28
-4 35 -20 35 -16 0 -20 7 -20 35 0 24 -5 35 -15 35 -10 0 -15 11 -15 35 0 28
-4 35 -20 35 -16 0 -20 7 -20 30 0 20 -5 30 -15 30 -10 0 -15 11 -15 35 0 24
-5 35 -15 35 -10 0 -15 11 -15 35 0 28 -4 35 -20 35 -18 0 -20 7 -20 55 0 42
-3 55 -15 55 -10 0 -15 10 -15 30 0 23 -4 30 -20 30 -16 0 -20 7 -20 35 0 24
-5 35 -15 35 -10 0 -15 11 -15 35 0 28 -4 35 -20 35 -16 0 -20 7 -20 35 0 24
-5 35 -15 35 -10 0 -15 11 -15 35 0 28 -4 35 -20 35 -16 0 -20 7 -20 35 0 24
-5 35 -15 35 -11 0 -15 12 -15 50 0 38 -4 50 -15 50 -10 0 -15 11 -15 35 0 28
-4 35 -20 35 -16 0 -20 7 -20 35 0 24 -5 35 -15 35 -10 0 -15 11 -15 35 0 28
-4 35 -20 35 -16 0 -20 7 -20 35 0 24 -5 35 -15 35 -10 0 -15 11 -15 35 0 28
-4 35 -20 35 -16 0 -20 7 -20 35 0 24 -5 35 -15 35 -11 0 -15 12 -15 50 0 43
-3 50 -20 50 -16 0 -20 7 -20 35 0 24 -5 35 -15 35 -10 0 -15 11 -15 35 l0 35
-965 0 c-958 0 -965 0 -965 -20z"/>
<path d="M8380 13035 c0 -24 5 -35 15 -35 10 0 15 -11 15 -35 0 -28 4 -35 20
-35 17 0 20 -7 20 -50 0 -38 4 -50 15 -50 10 0 15 -11 15 -35 0 -24 5 -35 15
-35 10 0 15 -11 15 -35 0 -28 4 -35 20 -35 16 0 20 -7 20 -35 0 -24 5 -35 15
-35 10 0 15 -11 15 -35 0 -28 4 -35 20 -35 16 0 20 -7 20 -35 0 -24 5 -35 15
-35 10 0 15 -11 15 -35 0 -28 4 -35 20 -35 17 0 20 -7 20 -50 0 -38 4 -50 15
-50 10 0 15 -11 15 -35 0 -28 4 -35 20 -35 16 0 20 -7 20 -35 0 -24 5 -35 15
-35 10 0 15 -11 15 -35 0 -28 4 -35 20 -35 16 0 20 -7 20 -35 0 -24 5 -35 15
-35 10 0 15 -11 15 -35 0 -24 5 -35 15 -35 10 0 15 -10 15 -30 0 -23 4 -30 20
-30 16 0 20 -7 20 -35 l0 -35 85 0 c69 0 85 3 85 15 0 12 14 15 70 15 63 0 70
2 70 20 0 11 7 20 15 20 8 0 15 7 15 15 0 8 9 15 20 15 11 0 20 7 20 15 0 8 7
15 15 15 8 0 15 9 15 20 0 13 7 20 20 20 11 0 20 7 20 15 0 8 7 15 15 15 8 0
15 9 15 20 0 13 7 20 20 20 11 0 20 7 20 15 0 8 7 15 15 15 8 0 15 9 15 20 0
11 7 20 15 20 8 0 15 7 15 15 0 10 11 15 35 15 28 0 35 4 35 20 0 13 7 20 20
20 11 0 20 7 20 15 0 10 11 15 35 15 24 0 35 5 35 15 0 10 11 15 35 15 28 0
35 4 35 20 0 16 7 20 30 20 20 0 30 5 30 15 0 10 11 15 35 15 28 0 35 4 35 20
0 16 7 20 35 20 24 0 35 5 35 15 0 12 13 15 55 15 48 0 55 2 55 20 0 17 7 20
50 20 38 0 50 4 50 15 0 12 14 15 70 15 63 0 70 2 70 20 0 18 7 20 70 20 56 0
70 3 70 15 0 10 10 15 30 15 20 0 30 5 30 15 0 8 -7 15 -15 15 -10 0 -15 11
-15 35 0 24 -5 35 -15 35 -10 0 -15 11 -15 35 0 28 -4 35 -20 35 -16 0 -20 7
-20 35 0 24 -5 35 -15 35 -10 0 -15 11 -15 35 0 28 -4 35 -20 35 -16 0 -20 7
-20 35 0 24 -5 35 -15 35 -10 0 -15 11 -15 35 0 28 -4 35 -20 35 -16 0 -20 7
-20 35 l0 35 -945 0 -945 0 0 -35z"/>
</g>
</svg>
